<svg width="34" height="22" viewBox="0 0 34 22" fill="none" xmlns="http://www.w3.org/2000/svg">
<path d="M1.37467 21.9777C0.799378 21.9777 0.333008 21.5113 0.333008 20.936C0.333008 20.3607 0.799378 19.8943 1.37467 19.8943H32.6247C33.2 19.8943 33.6663 20.3607 33.6663 20.936C33.6663 21.5113 33.2 21.9777 32.6247 21.9777H1.37467ZM1.37467 12.0417C0.799378 12.0417 0.333008 11.5754 0.333008 11.0001C0.333008 10.4248 0.799378 9.9584 1.37467 9.9584H32.6247C33.2 9.9584 33.6663 10.4248 33.6663 11.0001C33.6663 11.5754 33.2 12.0417 32.6247 12.0417H1.37467ZM1.37467 2.10579C0.799378 2.10579 0.333008 1.63942 0.333008 1.06413C0.333008 0.488831 0.799378 0.0224609 1.37467 0.0224609H32.6247C33.2 0.0224609 33.6663 0.488831 33.6663 1.06413C33.6663 1.63942 33.2 2.10579 32.6247 2.10579H1.37467Z" fill="#1C242B"/>
</svg>
