<svg width="164" height="144" viewBox="0 0 164 144" xmlns="http://www.w3.org/2000/svg">
<path d="M31.9758 55.3497H4.34312C1.94442 55.3497 0 53.4058 0 51.0087C0 48.6116 1.94442 46.6678 4.34312 46.6678H34.3728C35.8646 46.6678 37.2518 47.4331 38.0471 48.6946L46.6973 62.416L60.0168 28.4334C60.6886 26.7192 62.3755 25.6266 64.2109 25.6782C66.052 25.7416 67.6524 26.9593 68.2044 28.716L80.8724 69.039L85.4653 49.9912C85.9357 48.0412 87.6812 46.6673 89.6877 46.6673H111.248C113.647 46.6673 115.591 48.6112 115.591 51.0083C115.591 53.4054 113.647 55.3493 111.248 55.3493H93.1088L85.646 86.2996C85.1886 88.1962 83.5217 89.5549 81.5708 89.6209C81.5213 89.6227 81.4718 89.6235 81.4223 89.6235C79.5313 89.6235 77.8496 88.3972 77.2798 86.5831L63.6094 43.0695L51.6497 73.5827C51.0521 75.1077 49.6467 76.1665 48.0154 76.321C46.3863 76.479 44.8045 75.699 43.9316 74.3137L31.9758 55.3497ZM152.698 13.9927C143.366 4.96956 131.17 0 118.358 0C107.094 0 96.324 3.80748 87.626 10.7943C78.9285 3.80704 68.158 0 56.8954 0C44.0814 0 31.8855 4.96956 22.5543 13.9927C17.0012 19.3625 13.4511 25.772 12.0031 33.0427C11.5349 35.3938 13.0619 37.6797 15.4146 38.1477C17.7664 38.6135 20.0535 37.0894 20.5221 34.7379C21.6344 29.1545 24.2746 24.4098 28.5943 20.2329C36.2968 12.7846 46.3476 8.6824 56.8958 8.6824C67.2572 8.6824 77.1122 12.5971 84.6449 19.7055C86.3183 21.2847 88.9337 21.2851 90.6076 19.7055C98.1403 12.5971 107.996 8.6824 118.358 8.6824C128.904 8.6824 138.955 12.7846 146.658 20.2329C152.582 25.9613 155.412 32.8556 155.311 41.3101C155.016 66.0233 129.053 98.6628 104.855 120.968C103.607 122.119 102.435 123.207 101.33 124.232C94.8117 130.282 90.3557 134.417 87.626 135.232C84.8955 134.417 80.4377 130.28 73.9165 124.227C72.8138 123.204 71.6433 122.118 70.3968 120.968C61.5564 112.82 39.6992 91.3347 27.7009 67.8748C26.609 65.7403 23.9923 64.8938 21.8568 65.9851C19.7213 67.0765 18.8748 69.6915 19.9666 71.8264C32.6021 96.5318 55.3253 118.886 64.508 127.35C65.7471 128.492 66.9102 129.571 68.0064 130.589C77.0909 139.02 81.6512 143.252 87.0605 143.963C87.2486 143.988 87.4375 144 87.6264 144C87.8154 144 88.0043 143.988 88.1919 143.963C93.6017 143.252 98.1602 139.022 107.241 130.594C108.339 129.575 109.504 128.494 110.744 127.35C123.132 115.931 163.584 75.9863 163.997 41.4134C164.126 30.5935 160.325 21.3681 152.698 13.9927Z"/>
</svg>
