<svg width="422" height="100" viewBox="0 0 422 100" fill="none" xmlns="http://www.w3.org/2000/svg">
<g clip-path="url(#clip0_2079_1652)">
<path d="M77.3152 59.8529L73.1096 77.97H54.7564L56.5835 73.7205H56.7172H60.3059C63.203 73.7205 65.4836 73.4918 67.1473 73.0082C68.8105 72.5502 70.362 71.3286 71.8387 69.3694C73.2967 67.4356 74.7171 64.1528 76.1378 59.5222L77.3152 59.8529ZM53.7361 77.97H48.5697L50.79 72.8668C51.6759 73.3598 53.2785 73.6389 55.5926 73.7053L53.7361 77.97ZM47.4514 77.97H40.9795L39.9019 75.426C40.4443 75.0782 40.8655 74.603 41.1656 74.0004C41.8759 72.5755 42.2312 69.9545 42.2312 66.1124V60.0138C43.0387 60.437 43.8504 60.845 44.6134 61.2284C46.0465 61.9482 47.3083 62.5824 48.0412 63.0685C48.2356 63.1968 48.4168 63.2942 48.5806 63.3826C48.825 63.5138 49.0284 63.6234 49.1658 63.788V66.1124C49.1658 69.149 49.4559 71.1671 50.0371 72.1462L47.4514 77.97ZM42.2312 58.9351V55.3054C43.2398 55.9326 44.685 56.5429 46.2157 57.1895C47.1953 57.6029 48.2107 58.0318 49.1658 58.488V62.6517C49.0291 62.5448 48.8619 62.4545 48.6728 62.3533C48.5124 62.2669 48.335 62.1712 48.1493 62.048C47.4013 61.5523 46.1369 60.9171 44.7012 60.1958C43.9106 59.7983 43.0672 59.3747 42.2312 58.9351ZM42.2312 54.2166V43.5089L42.5946 43.6234C44.4891 44.2192 46.3708 44.8112 48.0261 45.6361C48.4626 45.8534 48.8473 46.0673 49.1658 46.2763V57.4139C48.2314 56.9706 47.2453 56.5539 46.2921 56.1514C44.7136 55.4847 43.2262 54.8564 42.2312 54.2166ZM42.2312 36.4916V23.0587C42.2312 21.4207 42.1671 19.4141 42.0405 16.4158C43.2744 16.0893 44.639 16.1629 45.6228 16.2781C46.9742 16.4363 48.1237 16.8064 49.2623 17.8069C49.1976 20.7233 49.1658 22.6302 49.1658 24.1782V38.951C46.9015 37.9871 44.5633 37.2607 42.2312 36.4916ZM41.5833 7.21754C41.3829 5.06074 41.1377 4.47559 40.8481 4.1255C39.9264 3.01132 38.6421 2.4719 36.9976 2.4719H35.166V0.639862H57.3715V2.4719C55.3342 2.4719 53.7033 2.71559 52.4927 3.23501C51.2732 3.75841 50.4126 4.55598 49.9135 5.60152C49.7406 5.96336 49.5987 6.72073 49.4868 9.06442C49.1301 8.86763 48.7723 8.68103 48.4156 8.50735C46.5791 7.61191 44.3859 7.03016 42.323 7.14472C42.0745 7.1587 41.8273 7.18259 41.5833 7.21754ZM39.9114 77.97H35.166V76.1378H36.9976C37.7528 76.1378 38.4165 76.0434 38.9893 75.8545L39.9114 77.97Z" fill="#0A1D37"/>
<path fill-rule="evenodd" clip-rule="evenodd" d="M11.2052 39.3807L37.2385 99.2085C40.6035 94.6826 43.6455 92.9888 47.0444 93.3408L70.3007 39.8995C72.878 34.2214 76.8336 30.2363 83.038 28.6143L83.0384 26.6614C76.3522 28.037 65.8962 27.7939 59.2898 26.6577V28.6024C65.045 29.9294 67.7523 33.0776 65.4016 39.2551L44.2317 87.9062L22.6955 38.4147C20.2153 32.7135 22.5513 29.8244 28.1587 28.6104V26.6626C20.4398 27.8921 8.18906 27.7431 0.464844 26.6588V28.6145C4.78345 29.2957 8.77211 34.0962 11.2052 39.3807Z" fill="#12325F"/>
<path fill-rule="evenodd" clip-rule="evenodd" d="M50.1767 24.9761C54.8312 22.3775 51.4464 13.1291 40.7681 15.8078C38.6977 16.3274 36.0291 16.9387 35.022 16.3001C33.4469 15.3012 36.1399 11.8681 37.7689 10.1979C40.506 7.39572 45.0318 7.97931 48.3733 9.60824C56.1002 13.3798 64.383 22.806 53.8814 29.0242C52.6897 29.7296 51.7937 30.2389 50.116 30.7812C50.2079 28.841 50.0904 26.9304 50.1767 24.9761ZM38.0292 11.6061C37.532 11.7597 37.2778 12.2243 37.4596 12.6426C37.6404 13.0609 38.1915 13.2771 38.6872 13.1239C39.1817 12.9707 39.4367 12.5045 39.2551 12.0862C39.0725 11.6676 38.5234 11.4521 38.0292 11.6061Z" fill="#12325F"/>
<path fill-rule="evenodd" clip-rule="evenodd" d="M49.949 47.5235C51.6205 46.7112 50.6849 45.752 48.6254 44.7254C44.2699 42.5561 37.8353 42.0002 34.1834 38.7553C31.1077 36.022 30.2414 32.3775 35.5069 29.7649C37.1645 28.9422 39.0395 28.4568 41.1024 27.8728C41.1811 29.6158 41.1769 31.2993 41.169 33.0219C35.9269 34.5309 37.4052 36.1525 42.1814 37.7298C46.1279 39.0321 52.2841 40.8344 54.9422 43.9275C57.9006 47.3711 55.7493 50.812 49.9742 51.9683L49.949 47.5235Z" fill="#12325F"/>
<path fill-rule="evenodd" clip-rule="evenodd" d="M49.9963 63.7955C50.081 61.8146 37.5573 58.0612 36.2481 54.5074C35.1622 51.5556 38.0902 50.2093 41.3203 49.3488C41.3918 50.7528 41.361 52.0593 41.3489 53.4424C40.4849 53.7788 40.8691 54.0761 41.5049 54.6514C44.0122 56.9208 53.5322 58.8296 53.8192 62.6339C53.9556 64.4398 52.5978 66.3216 50.0264 69.0454C49.799 67.4912 49.8972 65.4172 49.9963 63.7955Z" fill="#12325F"/>
<path fill-rule="evenodd" clip-rule="evenodd" d="M37.084 69.7629C39.0207 69.7144 40.8738 68.7131 41.6787 67.5196C41.6896 68.4985 41.5669 69.6832 41.4946 70.4364C38.5217 71.7047 37.2848 70.1694 37.084 69.7629Z" fill="#12325F"/>
<path d="M150.427 36.1655C150.427 36.6032 150.345 36.9904 150.18 37.3339C150.013 37.6741 149.769 37.9604 149.447 38.1906C149.122 38.4204 148.719 38.5969 148.237 38.7167C147.755 38.8362 147.192 38.8965 146.551 38.8965C146.351 38.8965 146.154 38.8965 145.966 38.8931C145.776 38.89 145.59 38.8836 145.416 38.874C145.238 38.8646 145.062 38.8521 144.887 38.8426C144.715 38.8301 144.539 38.8141 144.371 38.7952C144.127 38.7638 143.945 38.6818 143.829 38.5498C143.714 38.4174 143.654 38.2221 143.654 37.9638V30.8139C143.654 30.5617 143.71 30.3668 143.823 30.231C143.939 30.0956 144.111 30.0171 144.343 29.9921C144.502 29.9728 144.671 29.9572 144.853 29.9447C145.031 29.9318 145.215 29.9227 145.406 29.9129C145.593 29.9037 145.791 29.8972 145.992 29.8908C146.195 29.8844 146.397 29.8817 146.607 29.8817C147.199 29.8817 147.712 29.9288 148.147 30.0297C148.578 30.1274 148.941 30.272 149.225 30.4612C149.513 30.6532 149.726 30.8864 149.864 31.1636C150.002 31.4404 150.07 31.7586 150.07 32.1147C150.07 32.5808 149.945 32.9809 149.698 33.3147C149.45 33.6458 149.088 33.8816 148.603 34.0235C149.21 34.1525 149.663 34.4016 149.97 34.7733C150.274 35.1415 150.427 35.6049 150.427 36.1655ZM148.603 32.3071C148.603 32.1053 148.569 31.9225 148.494 31.762C148.421 31.6042 148.3 31.4689 148.13 31.3589C147.965 31.2455 147.746 31.1636 147.48 31.1067C147.214 31.0533 146.892 31.0252 146.513 31.0252C146.229 31.0252 145.966 31.0342 145.725 31.0471C145.487 31.0627 145.288 31.0817 145.122 31.1006V33.6833H146.661C147.289 33.6833 147.771 33.5635 148.106 33.3275C148.438 33.0909 148.603 32.7507 148.603 32.3071ZM148.878 36.1939C148.878 35.9478 148.838 35.7304 148.75 35.5416C148.665 35.3558 148.527 35.1984 148.343 35.0755C148.156 34.9527 147.918 34.8612 147.627 34.7983C147.337 34.7384 146.995 34.7069 146.598 34.7069H145.122V37.6521C145.238 37.6707 145.359 37.6836 145.484 37.6931C145.61 37.7026 145.738 37.7117 145.869 37.7215C146 37.7306 146.132 37.737 146.263 37.7436C146.395 37.7496 146.513 37.7527 146.623 37.7527C147.02 37.7527 147.362 37.7181 147.642 37.6457C147.924 37.5763 148.156 37.4724 148.343 37.337C148.527 37.2016 148.665 37.0377 148.75 36.8425C148.838 36.6502 148.878 36.4333 148.878 36.1939ZM163.67 34.0425C163.67 34.2818 163.611 34.4551 163.492 34.5556C163.373 34.6569 163.238 34.7069 163.085 34.7069H157.677C157.677 35.17 157.724 35.5826 157.815 35.9542C157.904 36.3229 158.058 36.638 158.274 36.9024C158.487 37.1667 158.765 37.3715 159.106 37.5134C159.45 37.6552 159.866 37.7245 160.363 37.7245C160.755 37.7245 161.102 37.6931 161.408 37.6268C161.712 37.5637 161.978 37.4913 162.2 37.4094C162.422 37.3305 162.607 37.2581 162.75 37.1951C162.894 37.1292 163 37.0976 163.075 37.0976C163.117 37.0976 163.157 37.1071 163.188 37.1292C163.223 37.1511 163.248 37.1826 163.266 37.227C163.286 37.271 163.301 37.3305 163.311 37.4064C163.316 37.4818 163.323 37.5763 163.323 37.6867C163.323 37.7686 163.319 37.8379 163.314 37.8944C163.308 37.9544 163.301 38.0048 163.291 38.0519C163.282 38.0993 163.266 38.1403 163.244 38.1781C163.223 38.2127 163.195 38.2503 163.163 38.2821C163.128 38.3166 163.029 38.3735 162.863 38.4489C162.7 38.5244 162.484 38.6003 162.222 38.6757C161.959 38.7481 161.655 38.8141 161.312 38.874C160.968 38.9305 160.598 38.9624 160.207 38.9624C159.528 38.9624 158.934 38.8646 158.424 38.6757C157.914 38.4835 157.486 38.2002 157.135 37.8251C156.789 37.4504 156.526 36.9812 156.347 36.4142C156.172 35.8473 156.081 35.1889 156.081 34.4392C156.081 33.7273 156.175 33.0848 156.357 32.5148C156.541 31.9478 156.804 31.4628 157.151 31.0658C157.495 30.6691 157.911 30.3668 158.402 30.1525C158.891 29.9413 159.437 29.8343 160.041 29.8343C160.689 29.8343 161.24 29.9382 161.696 30.1495C162.15 30.3573 162.525 30.6406 162.819 30.9933C163.113 31.3464 163.326 31.762 163.464 32.2376C163.601 32.7163 163.67 33.2233 163.67 33.7652V34.0425ZM162.15 33.5919C162.168 32.7921 161.994 32.1618 161.621 31.7082C161.252 31.252 160.704 31.0252 159.979 31.0252C159.603 31.0252 159.278 31.0976 158.997 31.2391C158.715 31.3774 158.48 31.5668 158.293 31.7996C158.102 32.0328 157.955 32.3071 157.851 32.6153C157.748 32.9274 157.689 33.2517 157.677 33.5919H162.15ZM175.659 30.7036C175.659 30.8265 175.653 30.9303 175.64 31.0153C175.627 31.1036 175.609 31.1727 175.58 31.2296C175.553 31.2831 175.521 31.324 175.484 31.3525C175.449 31.3809 175.403 31.3935 175.346 31.3935H172.872V38.5563C172.872 38.6033 172.859 38.6472 172.837 38.6788C172.812 38.7137 172.771 38.7417 172.718 38.7671C172.663 38.7922 172.587 38.8111 172.487 38.8237C172.391 38.8362 172.265 38.8426 172.112 38.8426C171.964 38.8426 171.843 38.8362 171.746 38.8237C171.648 38.8111 171.571 38.7922 171.511 38.7671C171.455 38.7417 171.414 38.7137 171.393 38.6788C171.37 38.6472 171.361 38.6033 171.361 38.5563V31.3935H168.887C168.837 31.3935 168.793 31.3809 168.752 31.3525C168.714 31.324 168.68 31.2831 168.658 31.2296C168.633 31.1727 168.615 31.1006 168.598 31.0123C168.583 30.9208 168.574 30.817 168.574 30.694C168.574 30.5806 168.583 30.4833 168.598 30.3983C168.615 30.313 168.633 30.2405 168.661 30.1805C168.689 30.124 168.721 30.0801 168.758 30.0516C168.796 30.0232 168.837 30.0106 168.887 30.0106H175.346C175.396 30.0106 175.44 30.0232 175.481 30.0516C175.521 30.0801 175.553 30.124 175.577 30.1805C175.6 30.2405 175.622 30.313 175.637 30.4013C175.653 30.4923 175.659 30.5902 175.659 30.7036ZM188.011 34.0425C188.011 34.2818 187.951 34.4551 187.832 34.5556C187.714 34.6569 187.579 34.7069 187.426 34.7069H182.017C182.017 35.17 182.065 35.5826 182.155 35.9542C182.246 36.3229 182.399 36.638 182.615 36.9024C182.827 37.1667 183.106 37.3715 183.447 37.5134C183.79 37.6552 184.207 37.7245 184.705 37.7245C185.095 37.7245 185.442 37.6931 185.75 37.6268C186.052 37.5637 186.319 37.4913 186.54 37.4094C186.762 37.3305 186.947 37.2581 187.091 37.1951C187.235 37.1292 187.342 37.0976 187.416 37.0976C187.457 37.0976 187.498 37.1071 187.529 37.1292C187.563 37.1511 187.588 37.1826 187.608 37.227C187.626 37.271 187.642 37.3305 187.651 37.4064C187.657 37.4818 187.664 37.5763 187.664 37.6867C187.664 37.7686 187.661 37.8379 187.654 37.8944C187.648 37.9544 187.641 38.0048 187.632 38.0519C187.623 38.0993 187.608 38.1403 187.586 38.1781C187.563 38.2127 187.535 38.2503 187.505 38.2821C187.47 38.3166 187.37 38.3735 187.204 38.4489C187.041 38.5244 186.826 38.6003 186.563 38.6757C186.299 38.7481 185.997 38.8141 185.652 38.874C185.308 38.9305 184.939 38.9624 184.547 38.9624C183.87 38.9624 183.275 38.8646 182.765 38.6757C182.255 38.4835 181.826 38.2002 181.476 37.8251C181.129 37.4504 180.866 36.9812 180.688 36.4142C180.512 35.8473 180.422 35.1889 180.422 34.4392C180.422 33.7273 180.515 33.0848 180.697 32.5148C180.881 31.9478 181.145 31.4628 181.492 31.0658C181.836 30.6691 182.252 30.3668 182.743 30.1525C183.231 29.9413 183.778 29.8343 184.382 29.8343C185.029 29.8343 185.58 29.9382 186.037 30.1495C186.49 30.3573 186.866 30.6406 187.16 30.9933C187.454 31.3464 187.667 31.762 187.804 32.2376C187.942 32.7163 188.011 33.2233 188.011 33.7652V34.0425ZM186.49 33.5919C186.51 32.7921 186.334 32.1618 185.962 31.7082C185.593 31.252 185.046 31.0252 184.32 31.0252C183.944 31.0252 183.619 31.0976 183.337 31.2391C183.056 31.3774 182.821 31.5668 182.633 31.7996C182.442 32.0328 182.296 32.3071 182.193 32.6153C182.089 32.9274 182.03 33.2517 182.017 33.5919H186.49ZM201.886 34.2723C201.886 35.0001 201.808 35.652 201.651 36.2284C201.498 36.8079 201.267 37.2995 200.966 37.7026C200.663 38.1057 200.287 38.414 199.843 38.6347C199.396 38.8521 198.886 38.9624 198.31 38.9624C198.067 38.9624 197.842 38.9371 197.635 38.8866C197.425 38.8396 197.222 38.7606 197.024 38.6568C196.825 38.5529 196.628 38.4204 196.433 38.2601C196.236 38.0993 196.03 37.9135 195.811 37.6962V41.8507C195.811 41.8978 195.799 41.9422 195.774 41.9798C195.749 42.0142 195.708 42.0461 195.655 42.0711C195.598 42.0966 195.523 42.1151 195.427 42.1276C195.326 42.1371 195.201 42.1436 195.048 42.1436C194.904 42.1436 194.781 42.1371 194.682 42.1276C194.585 42.1151 194.507 42.0966 194.45 42.0711C194.391 42.0461 194.35 42.0142 194.331 41.9798C194.31 41.9422 194.296 41.8978 194.296 41.8507V30.25C194.296 30.1935 194.307 30.1495 194.325 30.1176C194.344 30.0831 194.381 30.0546 194.434 30.0297C194.491 30.0042 194.56 29.9887 194.647 29.9792C194.732 29.9697 194.835 29.9637 194.957 29.9637C195.085 29.9637 195.192 29.9697 195.273 29.9792C195.357 29.9887 195.427 30.0042 195.48 30.0297C195.536 30.0546 195.573 30.0831 195.595 30.1176C195.617 30.1495 195.626 30.1935 195.626 30.25V31.3684C195.877 31.1067 196.118 30.883 196.352 30.694C196.584 30.5022 196.816 30.3444 197.053 30.2189C197.287 30.0926 197.528 29.9951 197.775 29.9318C198.022 29.8658 198.285 29.8343 198.561 29.8343C199.158 29.8343 199.668 29.9507 200.09 30.1871C200.513 30.4203 200.853 30.7384 201.119 31.1446C201.385 31.5508 201.579 32.0234 201.702 32.5623C201.826 33.1007 201.886 33.6708 201.886 34.2723ZM200.29 34.4486C200.29 34.0235 200.259 33.6139 200.196 33.2172C200.131 32.8202 200.022 32.4674 199.865 32.1587C199.709 31.8535 199.499 31.6077 199.236 31.4219C198.974 31.2391 198.648 31.1446 198.257 31.1446C198.061 31.1446 197.87 31.1727 197.678 31.233C197.491 31.2925 197.297 31.3839 197.103 31.5099C196.906 31.6362 196.703 31.8026 196.487 32.0074C196.274 32.2156 196.049 32.4674 195.811 32.7697V36.074C196.224 36.5841 196.618 36.9748 196.993 37.2456C197.366 37.5168 197.757 37.6521 198.167 37.6521C198.545 37.6521 198.871 37.5573 199.143 37.3749C199.412 37.1887 199.634 36.9434 199.803 36.6346C199.968 36.3289 200.093 35.9827 200.171 35.6015C200.253 35.2204 200.29 34.8362 200.29 34.4486ZM215.486 38.5654C215.486 38.6064 215.473 38.6472 215.448 38.6852C215.423 38.7197 215.386 38.7512 215.33 38.7732C215.277 38.7922 215.199 38.8111 215.101 38.8237C215.004 38.8362 214.882 38.8426 214.735 38.8426C214.588 38.8426 214.466 38.8362 214.369 38.8237C214.269 38.8111 214.191 38.7922 214.128 38.7732C214.069 38.7512 214.025 38.7197 214 38.6852C213.978 38.6472 213.966 38.6064 213.966 38.5654V33.7842C213.966 33.5449 213.972 33.2991 213.982 33.0504C213.994 32.8012 214.01 32.5558 214.028 32.3165C213.887 32.5623 213.734 32.8046 213.565 33.0404C213.396 33.2771 213.228 33.5131 213.058 33.7463L209.555 38.5654C209.515 38.6128 209.477 38.6568 209.442 38.6947C209.408 38.7292 209.364 38.7606 209.314 38.7831C209.261 38.8016 209.195 38.8171 209.117 38.8271C209.035 38.8362 208.939 38.8426 208.823 38.8426C208.688 38.8426 208.579 38.8362 208.494 38.8237C208.407 38.8111 208.338 38.7922 208.288 38.7732C208.235 38.7512 208.197 38.7197 208.178 38.6852C208.157 38.6472 208.144 38.6064 208.144 38.5654V30.2405C208.144 30.1965 208.157 30.1586 208.178 30.121C208.197 30.0831 208.238 30.0546 208.298 30.0297C208.354 30.0042 208.432 29.9887 208.529 29.9792C208.628 29.9697 208.748 29.9637 208.889 29.9637C209.18 29.9637 209.383 29.9887 209.492 30.0327C209.601 30.0801 209.658 30.1495 209.658 30.2405V35.0471C209.658 35.2898 209.651 35.5257 209.64 35.7654C209.627 36.0016 209.611 36.2349 209.593 36.4707C209.733 36.2349 209.874 36.0081 210.018 35.7809C210.162 35.5575 210.318 35.3369 210.481 35.1226L214.028 30.2405C214.066 30.1904 214.103 30.1495 214.144 30.1112C214.181 30.0737 214.231 30.0452 214.291 30.0232C214.347 30.0012 214.416 29.9887 214.498 29.9792C214.576 29.9697 214.679 29.9637 214.807 29.9637C214.935 29.9637 215.044 29.9697 215.132 29.9792C215.22 29.9887 215.292 30.0042 215.345 30.0297C215.395 30.0546 215.433 30.0831 215.454 30.121C215.476 30.1586 215.486 30.1996 215.486 30.25V38.5654ZM229.508 38.5563C229.508 38.6033 229.496 38.6472 229.471 38.6788C229.446 38.7137 229.408 38.7417 229.352 38.7671C229.295 38.7922 229.22 38.8111 229.124 38.8237C229.023 38.8362 228.901 38.8426 228.757 38.8426C228.604 38.8426 228.48 38.8362 228.379 38.8237C228.282 38.8111 228.207 38.7922 228.151 38.7671C228.098 38.7417 228.056 38.7137 228.032 38.6788C228.007 38.6472 227.994 38.6033 227.994 38.5563V34.9117H223.79V38.5563C223.79 38.6033 223.777 38.6472 223.752 38.6788C223.727 38.7137 223.687 38.7417 223.633 38.7671C223.578 38.7922 223.502 38.8111 223.405 38.8237C223.306 38.8362 223.18 38.8426 223.027 38.8426C222.882 38.8426 222.761 38.8362 222.661 38.8237C222.563 38.8111 222.485 38.7922 222.429 38.7671C222.369 38.7417 222.329 38.7137 222.311 38.6788C222.288 38.6472 222.276 38.6033 222.276 38.5563V30.25C222.276 30.1996 222.288 30.1586 222.311 30.124C222.329 30.0926 222.369 30.0611 222.429 30.0327C222.485 30.0042 222.563 29.9887 222.661 29.9792C222.761 29.9697 222.882 29.9637 223.027 29.9637C223.18 29.9637 223.306 29.9697 223.405 29.9792C223.502 29.9887 223.578 30.0042 223.633 30.0327C223.687 30.0611 223.727 30.0926 223.752 30.124C223.777 30.1586 223.79 30.1996 223.79 30.25V33.6265H227.994V30.25C227.994 30.1996 228.007 30.1586 228.032 30.124C228.056 30.0926 228.098 30.0611 228.151 30.0327C228.207 30.0042 228.282 29.9887 228.379 29.9792C228.48 29.9697 228.604 29.9637 228.757 29.9637C228.901 29.9637 229.023 29.9697 229.124 29.9792C229.22 29.9887 229.295 30.0042 229.352 30.0327C229.408 30.0611 229.446 30.0926 229.471 30.124C229.496 30.1586 229.508 30.1996 229.508 30.25V38.5563ZM242.514 38.5654C242.514 38.6378 242.489 38.6947 242.438 38.7292C242.392 38.7671 242.323 38.7952 242.239 38.8141C242.151 38.8331 242.026 38.8426 241.863 38.8426C241.704 38.8426 241.575 38.8331 241.482 38.8141C241.387 38.7952 241.319 38.7671 241.275 38.7292C241.231 38.6947 241.212 38.6378 241.212 38.5654V37.7337C240.849 38.1212 240.449 38.4239 240.006 38.6378C239.564 38.8521 239.095 38.9624 238.601 38.9624C238.166 38.9624 237.772 38.9056 237.421 38.7891C237.071 38.6757 236.771 38.5119 236.523 38.2976C236.276 38.0804 236.082 37.816 235.944 37.5038C235.81 37.1887 235.741 36.833 235.741 36.4333C235.741 35.9638 235.836 35.5605 236.023 35.2139C236.214 34.8707 236.486 34.584 236.839 34.3572C237.193 34.1274 237.627 33.9575 238.141 33.8441C238.654 33.7307 239.232 33.6738 239.874 33.6738H241.009V33.0283C241.009 32.7068 240.975 32.4235 240.909 32.1777C240.841 31.9319 240.734 31.7275 240.584 31.5668C240.434 31.4029 240.239 31.2801 240.002 31.1951C239.765 31.1132 239.471 31.0722 239.123 31.0722C238.747 31.0722 238.416 31.1162 238.119 31.2045C237.822 31.296 237.562 31.3935 237.34 31.5007C237.115 31.6077 236.93 31.7055 236.78 31.7966C236.63 31.8849 236.52 31.9289 236.445 31.9289C236.399 31.9289 236.354 31.916 236.318 31.894C236.279 31.869 236.248 31.831 236.22 31.7806C236.195 31.7336 236.173 31.6706 236.16 31.5921C236.148 31.5163 236.141 31.4313 236.141 31.34C236.141 31.1856 236.155 31.0627 236.176 30.9743C236.198 30.8864 236.248 30.8014 236.333 30.7191C236.414 30.6406 236.555 30.5462 236.758 30.4392C236.958 30.3319 237.19 30.2344 237.453 30.1431C237.716 30.0546 238.003 29.9822 238.315 29.9227C238.626 29.8624 238.941 29.8343 239.26 29.8343C239.852 29.8343 240.356 29.9037 240.771 30.0391C241.188 30.1745 241.522 30.3729 241.779 30.6341C242.035 30.8959 242.223 31.2201 242.339 31.6077C242.454 31.9953 242.514 32.4454 242.514 32.962V38.5654ZM241.009 34.7733H239.717C239.301 34.7733 238.941 34.8078 238.635 34.8771C238.332 34.9496 238.078 35.0536 237.875 35.192C237.674 35.3307 237.525 35.4972 237.43 35.6899C237.337 35.8848 237.29 36.1056 237.29 36.3573C237.29 36.789 237.425 37.1322 237.696 37.3874C237.968 37.6423 238.35 37.7716 238.838 37.7716C239.235 37.7716 239.602 37.6707 239.943 37.4663C240.281 37.2645 240.637 36.9528 241.009 36.5337V34.7733ZM256.865 34.2723C256.865 35.0001 256.786 35.652 256.63 36.2284C256.476 36.8079 256.245 37.2995 255.945 37.7026C255.641 38.1057 255.266 38.414 254.822 38.6347C254.374 38.8521 253.864 38.9624 253.289 38.9624C253.045 38.9624 252.82 38.9371 252.614 38.8866C252.404 38.8396 252.2 38.7606 252.003 38.6568C251.803 38.5529 251.606 38.4204 251.412 38.2601C251.215 38.0993 251.008 37.9135 250.789 37.6962V41.8507C250.789 41.8978 250.777 41.9422 250.752 41.9798C250.727 42.0142 250.686 42.0461 250.633 42.0711C250.577 42.0966 250.502 42.1151 250.405 42.1276C250.305 42.1371 250.179 42.1436 250.026 42.1436C249.883 42.1436 249.761 42.1371 249.66 42.1276C249.563 42.1151 249.486 42.0966 249.429 42.0711C249.37 42.0461 249.329 42.0142 249.31 41.9798C249.288 41.9422 249.276 41.8978 249.276 41.8507V30.25C249.276 30.1935 249.285 30.1495 249.304 30.1176C249.323 30.0831 249.36 30.0546 249.414 30.0297C249.469 30.0042 249.539 29.9887 249.626 29.9792C249.71 29.9697 249.814 29.9637 249.935 29.9637C250.064 29.9637 250.17 29.9697 250.251 29.9792C250.336 29.9887 250.405 30.0042 250.459 30.0297C250.515 30.0546 250.552 30.0831 250.573 30.1176C250.596 30.1495 250.605 30.1935 250.605 30.25V31.3684C250.855 31.1067 251.096 30.883 251.331 30.694C251.563 30.5022 251.794 30.3444 252.031 30.2189C252.267 30.0926 252.508 29.9951 252.755 29.9318C253.001 29.8658 253.265 29.8343 253.539 29.8343C254.137 29.8343 254.646 29.9507 255.07 30.1871C255.491 30.4203 255.832 30.7384 256.098 31.1446C256.365 31.5508 256.558 32.0234 256.68 32.5623C256.805 33.1007 256.865 33.6708 256.865 34.2723ZM255.269 34.4486C255.269 34.0235 255.238 33.6139 255.176 33.2172C255.109 32.8202 255 32.4674 254.844 32.1587C254.687 31.8535 254.478 31.6077 254.215 31.4219C253.952 31.2391 253.627 31.1446 253.236 31.1446C253.039 31.1446 252.848 31.1727 252.657 31.233C252.469 31.2925 252.275 31.3839 252.082 31.5099C251.885 31.6362 251.681 31.8026 251.465 32.0074C251.252 32.2156 251.028 32.4674 250.789 32.7697V36.074C251.202 36.5841 251.596 36.9748 251.972 37.2456C252.345 37.5168 252.735 37.6521 253.145 37.6521C253.524 37.6521 253.849 37.5573 254.121 37.3749C254.39 37.1887 254.613 36.9434 254.781 36.6346C254.947 36.3289 255.072 35.9827 255.151 35.6015C255.232 35.2204 255.269 34.8362 255.269 34.4486ZM270.355 38.5563C270.355 38.6033 270.343 38.6472 270.318 38.6788C270.293 38.7137 270.255 38.7417 270.199 38.7671C270.142 38.7922 270.067 38.8111 269.97 38.8237C269.87 38.8362 269.748 38.8426 269.604 38.8426C269.452 38.8426 269.325 38.8362 269.226 38.8237C269.129 38.8111 269.054 38.7922 268.998 38.7671C268.945 38.7417 268.904 38.7137 268.878 38.6788C268.854 38.6472 268.841 38.6033 268.841 38.5563V34.9117H264.637V38.5563C264.637 38.6033 264.624 38.6472 264.6 38.6788C264.575 38.7137 264.533 38.7417 264.48 38.7671C264.424 38.7922 264.349 38.8111 264.252 38.8237C264.151 38.8362 264.027 38.8426 263.874 38.8426C263.73 38.8426 263.608 38.8362 263.507 38.8237C263.411 38.8111 263.332 38.7922 263.276 38.7671C263.217 38.7417 263.176 38.7137 263.157 38.6788C263.135 38.6472 263.123 38.6033 263.123 38.5563V30.25C263.123 30.1996 263.135 30.1586 263.157 30.124C263.176 30.0926 263.217 30.0611 263.276 30.0327C263.332 30.0042 263.411 29.9887 263.507 29.9792C263.608 29.9697 263.73 29.9637 263.874 29.9637C264.027 29.9637 264.151 29.9697 264.252 29.9792C264.349 29.9887 264.424 30.0042 264.48 30.0327C264.533 30.0611 264.575 30.0926 264.6 30.124C264.624 30.1586 264.637 30.1996 264.637 30.25V33.6265H268.841V30.25C268.841 30.1996 268.854 30.1586 268.878 30.124C268.904 30.0926 268.945 30.0611 268.998 30.0327C269.054 30.0042 269.129 29.9887 269.226 29.9792C269.325 29.9697 269.452 29.9637 269.604 29.9637C269.748 29.9637 269.87 29.9697 269.97 29.9792C270.067 29.9887 270.142 30.0042 270.199 30.0327C270.255 30.0611 270.293 30.0926 270.318 30.124C270.343 30.1586 270.355 30.1996 270.355 30.25V38.5563ZM283.36 38.5654C283.36 38.6378 283.336 38.6947 283.286 38.7292C283.239 38.7671 283.17 38.7952 283.086 38.8141C282.998 38.8331 282.873 38.8426 282.711 38.8426C282.55 38.8426 282.422 38.8331 282.329 38.8141C282.234 38.7952 282.166 38.7671 282.122 38.7292C282.078 38.6947 282.06 38.6378 282.06 38.5654V37.7337C281.697 38.1212 281.296 38.4239 280.853 38.6378C280.411 38.8521 279.941 38.9624 279.448 38.9624C279.013 38.9624 278.618 38.9056 278.268 38.7891C277.917 38.6757 277.618 38.5119 277.37 38.2976C277.123 38.0804 276.929 37.816 276.791 37.5038C276.657 37.1887 276.589 36.833 276.589 36.4333C276.589 35.9638 276.682 35.5605 276.87 35.2139C277.06 34.8707 277.333 34.584 277.686 34.3572C278.04 34.1274 278.475 33.9575 278.988 33.8441C279.501 33.7307 280.079 33.6738 280.72 33.6738H281.856V33.0283C281.856 32.7068 281.822 32.4235 281.756 32.1777C281.688 31.9319 281.58 31.7275 281.431 31.5668C281.281 31.4029 281.087 31.2801 280.849 31.1951C280.611 31.1132 280.317 31.0722 279.97 31.0722C279.594 31.0722 279.264 31.1162 278.966 31.2045C278.669 31.296 278.409 31.3935 278.187 31.5007C277.962 31.6077 277.777 31.7055 277.627 31.7966C277.477 31.8849 277.367 31.9289 277.293 31.9289C277.245 31.9289 277.201 31.916 277.163 31.894C277.127 31.869 277.095 31.831 277.067 31.7806C277.042 31.7336 277.021 31.6706 277.007 31.5921C276.995 31.5163 276.989 31.4313 276.989 31.34C276.989 31.1856 277.001 31.0627 277.024 30.9743C277.045 30.8864 277.095 30.8014 277.18 30.7191C277.261 30.6406 277.402 30.5462 277.605 30.4392C277.806 30.3319 278.036 30.2344 278.299 30.1431C278.563 30.0546 278.85 29.9822 279.162 29.9227C279.473 29.8624 279.788 29.8343 280.108 29.8343C280.698 29.8343 281.203 29.9037 281.618 30.0391C282.035 30.1745 282.369 30.3729 282.626 30.6341C282.882 30.8959 283.07 31.2201 283.186 31.6077C283.302 31.9953 283.36 32.4454 283.36 32.962V38.5654ZM281.856 34.7733H280.564C280.149 34.7733 279.788 34.8078 279.482 34.8771C279.179 34.9496 278.925 35.0536 278.722 35.192C278.522 35.3307 278.372 35.4972 278.277 35.6899C278.184 35.8848 278.136 36.1056 278.136 36.3573C278.136 36.789 278.271 37.1322 278.543 37.3874C278.816 37.6423 279.197 37.7716 279.686 37.7716C280.082 37.7716 280.449 37.6707 280.79 37.4663C281.127 37.2645 281.484 36.9528 281.856 36.5337V34.7733ZM296.216 38.5563C296.216 38.6033 296.207 38.6472 296.185 38.6852C296.163 38.7197 296.126 38.7512 296.073 38.7732C296.016 38.7922 295.941 38.8111 295.841 38.8237C295.744 38.8362 295.616 38.8426 295.455 38.8426C295.309 38.8426 295.187 38.8362 295.09 38.8237C294.993 38.8111 294.915 38.7922 294.856 38.7732C294.8 38.7512 294.758 38.7197 294.737 38.6852C294.718 38.6472 294.705 38.6033 294.705 38.5563V35.0566H293.836C293.458 35.0566 293.16 35.088 292.95 35.151C292.741 35.2109 292.55 35.3148 292.382 35.4597C292.216 35.6049 292.062 35.7873 291.927 36.0141C291.793 36.2379 291.665 36.5117 291.543 36.8394L290.874 38.4614C290.845 38.5434 290.811 38.6064 290.773 38.6568C290.739 38.7072 290.683 38.7447 290.614 38.7732C290.545 38.7986 290.454 38.8171 290.348 38.8271C290.241 38.8362 290.107 38.8426 289.951 38.8426C289.832 38.8426 289.732 38.8396 289.641 38.8331C289.554 38.827 289.478 38.8141 289.419 38.7986C289.356 38.7861 289.31 38.7606 289.282 38.7262C289.25 38.6916 289.234 38.6503 289.234 38.6003C289.234 38.5593 289.25 38.4899 289.285 38.392C289.319 38.2976 289.388 38.1307 289.491 37.8914L290.151 36.3324C290.323 35.9387 290.532 35.5985 290.783 35.3118C291.033 35.0251 291.321 34.8142 291.646 34.6788C291.052 34.5685 290.579 34.3288 290.228 33.9636C289.879 33.5983 289.7 33.1133 289.7 32.5118C289.7 32.1117 289.785 31.7496 289.951 31.4279C290.113 31.1036 290.358 30.8295 290.676 30.6057C290.999 30.3823 291.392 30.209 291.859 30.0892C292.328 29.9697 292.863 29.9098 293.47 29.9098C293.614 29.9098 293.785 29.9129 293.976 29.9193C294.17 29.9257 294.368 29.9318 294.574 29.9447C294.778 29.9572 294.977 29.9728 295.168 29.9887C295.363 30.0012 295.528 30.0171 295.669 30.0297C295.85 30.0486 295.988 30.1146 296.082 30.231C296.173 30.3478 296.216 30.4923 296.216 30.666V38.5563ZM294.705 31.1351C294.486 31.1067 294.261 31.0847 294.026 31.0752C293.795 31.0658 293.583 31.0627 293.385 31.0627C292.97 31.0627 292.626 31.0976 292.347 31.1697C292.068 31.2391 291.846 31.34 291.678 31.4723C291.508 31.6042 291.389 31.762 291.321 31.9384C291.249 32.1177 291.215 32.3135 291.215 32.5304C291.215 32.7507 291.254 32.9495 291.336 33.1258C291.421 33.2991 291.546 33.447 291.715 33.5669C291.88 33.6868 292.097 33.7811 292.359 33.8441C292.622 33.9101 292.988 33.9416 293.461 33.9416H294.705V31.1351Z" fill="#12325F"/>
<path d="M322.717 38.6188C322.717 38.6568 322.705 38.6882 322.683 38.7167C322.664 38.7447 322.624 38.7672 322.564 38.7861C322.508 38.805 322.429 38.8172 322.336 38.8271C322.242 38.8362 322.12 38.8426 321.973 38.8426C321.804 38.8426 321.664 38.8362 321.557 38.8237C321.451 38.8111 321.363 38.7922 321.297 38.7732C321.229 38.7512 321.179 38.7228 321.151 38.6882C321.119 38.6538 321.097 38.6158 321.084 38.5748L320.206 36.4234C320.096 36.1466 319.977 35.9069 319.852 35.7085C319.727 35.5072 319.583 35.3463 319.417 35.2235C319.251 35.1006 319.067 35.0126 318.857 34.9557C318.65 34.9022 318.413 34.8738 318.144 34.8738H317.503V38.6094C317.503 38.6412 317.488 38.6727 317.456 38.7038C317.425 38.7322 317.381 38.7576 317.318 38.7766C317.259 38.7952 317.177 38.8111 317.081 38.8237C316.983 38.8362 316.868 38.8426 316.739 38.8426C316.611 38.8426 316.498 38.8362 316.402 38.8237C316.305 38.8111 316.224 38.7952 316.164 38.7766C316.101 38.7576 316.058 38.7322 316.03 38.7038C316.005 38.6727 315.988 38.6412 315.988 38.6094V30.1775C315.988 30.1461 316.005 30.1176 316.03 30.0892C316.058 30.0611 316.101 30.0391 316.164 30.0202C316.224 30.0012 316.305 29.9887 316.402 29.9792C316.498 29.9697 316.611 29.9637 316.739 29.9637C316.868 29.9637 316.983 29.9697 317.081 29.9792C317.177 29.9887 317.259 30.0012 317.318 30.0202C317.381 30.0391 317.425 30.0611 317.456 30.0892C317.488 30.1176 317.503 30.1461 317.503 30.1775V33.6549H318.144C318.376 33.6549 318.589 33.6299 318.779 33.5764C318.973 33.5259 319.148 33.4375 319.308 33.3177C319.467 33.1982 319.608 33.044 319.733 32.852C319.859 32.6628 319.974 32.4299 320.078 32.1587L320.847 30.25C320.859 30.1996 320.881 30.1586 320.91 30.121C320.94 30.0831 320.988 30.0546 321.047 30.0297C321.109 30.0042 321.191 29.9887 321.291 29.9792C321.392 29.9697 321.526 29.9637 321.692 29.9637C321.835 29.9637 321.957 29.9697 322.051 29.9792C322.149 29.9887 322.22 30.0012 322.273 30.0202C322.323 30.0391 322.358 30.0611 322.376 30.0892C322.395 30.1176 322.404 30.1461 322.404 30.1775C322.404 30.231 322.398 30.2909 322.383 30.3508C322.367 30.4139 322.341 30.4833 322.313 30.5651L321.526 32.392C321.403 32.6976 321.269 32.9555 321.125 33.1668C320.982 33.3746 320.837 33.5479 320.691 33.6868C320.543 33.8251 320.393 33.9321 320.243 34.0107C320.09 34.0865 319.943 34.1464 319.802 34.1904V34.2093C320.015 34.2818 320.212 34.3732 320.393 34.4771C320.575 34.581 320.741 34.71 320.897 34.8646C321.053 35.019 321.197 35.2014 321.331 35.4123C321.466 35.627 321.591 35.8693 321.707 36.1466L322.614 38.2503C322.639 38.2946 322.658 38.3325 322.67 38.3701C322.683 38.408 322.692 38.4425 322.698 38.477C322.705 38.5119 322.708 38.5374 322.712 38.5593C322.715 38.5813 322.717 38.6003 322.717 38.6188ZM335.454 38.5563C335.454 38.6033 335.441 38.6473 335.419 38.6788C335.394 38.7137 335.353 38.7417 335.298 38.7672C335.244 38.7922 335.166 38.8111 335.069 38.8237C334.972 38.8362 334.85 38.8426 334.703 38.8426C334.549 38.8426 334.425 38.8362 334.328 38.8237C334.231 38.8111 334.153 38.7922 334.093 38.7672C334.036 38.7417 333.993 38.7137 333.971 38.6788C333.946 38.6473 333.934 38.6033 333.934 38.5563V31.302H331.66C331.562 32.2816 331.446 33.1508 331.309 33.9136C331.172 34.6754 331.015 35.3399 330.846 35.9069C330.674 36.4739 330.48 36.9498 330.267 37.337C330.055 37.7245 329.82 38.0363 329.566 38.2722C329.314 38.5119 329.038 38.6818 328.741 38.7861C328.447 38.89 328.128 38.9435 327.793 38.9435C327.736 38.9435 327.69 38.934 327.652 38.915C327.612 38.8965 327.58 38.8615 327.556 38.8141C327.531 38.7638 327.512 38.6947 327.499 38.6064C327.486 38.5179 327.48 38.4019 327.48 38.2601C327.48 38.1118 327.486 37.9923 327.496 37.9009C327.506 37.8065 327.521 37.7337 327.542 37.6772C327.562 37.6237 327.59 37.5858 327.624 37.5672C327.659 37.5482 327.7 37.5387 327.746 37.5387C327.949 37.5387 328.14 37.4913 328.325 37.3969C328.51 37.3021 328.678 37.1447 328.838 36.9274C328.997 36.7071 329.148 36.4234 329.289 36.0676C329.429 35.7149 329.558 35.2804 329.673 34.7638C329.789 34.2473 329.898 33.6424 330.001 32.9495C330.105 32.2566 330.205 31.4628 330.295 30.5651C330.309 30.3793 330.352 30.244 330.427 30.1525C330.505 30.0641 330.611 30.0202 330.752 30.0202H334.988C335.135 30.0202 335.247 30.0641 335.331 30.1525C335.413 30.244 335.454 30.3793 335.454 30.5651V38.5563ZM349.589 38.5654C349.589 38.6064 349.576 38.6473 349.551 38.6852C349.526 38.7197 349.489 38.7512 349.433 38.7732C349.379 38.7922 349.301 38.8111 349.204 38.8237C349.107 38.8362 348.985 38.8426 348.838 38.8426C348.691 38.8426 348.569 38.8362 348.472 38.8237C348.372 38.8111 348.294 38.7922 348.231 38.7732C348.172 38.7512 348.128 38.7197 348.103 38.6852C348.081 38.6473 348.068 38.6064 348.068 38.5654V33.7842C348.068 33.5449 348.074 33.2991 348.085 33.0504C348.096 32.8012 348.112 32.5558 348.131 32.3165C347.99 32.5623 347.837 32.8046 347.668 33.0405C347.5 33.2772 347.33 33.5131 347.161 33.7463L343.658 38.5654C343.617 38.6128 343.58 38.6568 343.545 38.6947C343.511 38.7292 343.467 38.7607 343.417 38.7831C343.364 38.8016 343.298 38.8172 343.22 38.8271C343.138 38.8362 343.041 38.8426 342.926 38.8426C342.791 38.8426 342.681 38.8362 342.598 38.8237C342.51 38.8111 342.441 38.7922 342.391 38.7732C342.337 38.7512 342.301 38.7197 342.281 38.6852C342.26 38.6473 342.248 38.6064 342.248 38.5654V30.2406C342.248 30.1965 342.26 30.1586 342.281 30.121C342.301 30.0831 342.341 30.0546 342.401 30.0297C342.457 30.0042 342.535 29.9887 342.631 29.9792C342.732 29.9697 342.851 29.9637 342.991 29.9637C343.282 29.9637 343.486 29.9887 343.596 30.0327C343.704 30.0801 343.761 30.1495 343.761 30.2406V35.0471C343.761 35.2898 343.755 35.5257 343.742 35.7654C343.73 36.0016 343.714 36.2349 343.696 36.4708C343.837 36.2349 343.976 36.0081 344.121 35.7809C344.265 35.5575 344.421 35.3369 344.584 35.1226L348.131 30.2406C348.169 30.1905 348.206 30.1495 348.247 30.1112C348.284 30.0737 348.335 30.0452 348.394 30.0232C348.45 30.0012 348.519 29.9887 348.601 29.9792C348.679 29.9697 348.782 29.9637 348.91 29.9637C349.038 29.9637 349.147 29.9697 349.235 29.9792C349.323 29.9887 349.395 30.0042 349.448 30.0297C349.498 30.0546 349.536 30.0831 349.557 30.121C349.579 30.1586 349.589 30.1996 349.589 30.25V38.5654ZM363.611 38.5563C363.611 38.6033 363.598 38.6473 363.574 38.6788C363.548 38.7137 363.511 38.7417 363.454 38.7672C363.398 38.7922 363.323 38.8111 363.226 38.8237C363.127 38.8362 363.004 38.8426 362.86 38.8426C362.707 38.8426 362.582 38.8362 362.482 38.8237C362.385 38.8111 362.31 38.7922 362.253 38.7672C362.2 38.7417 362.159 38.7137 362.134 38.6788C362.109 38.6473 362.097 38.6033 362.097 38.5563V34.9117H357.893V38.5563C357.893 38.6033 357.88 38.6473 357.855 38.6788C357.83 38.7137 357.79 38.7417 357.737 38.7672C357.68 38.7922 357.605 38.8111 357.508 38.8237C357.408 38.8362 357.282 38.8426 357.129 38.8426C356.985 38.8426 356.864 38.8362 356.764 38.8237C356.666 38.8111 356.588 38.7922 356.532 38.7672C356.473 38.7417 356.432 38.7137 356.413 38.6788C356.392 38.6473 356.379 38.6033 356.379 38.5563V30.25C356.379 30.1996 356.392 30.1586 356.413 30.1241C356.432 30.0926 356.473 30.0611 356.532 30.0327C356.588 30.0042 356.666 29.9887 356.764 29.9792C356.864 29.9697 356.985 29.9637 357.129 29.9637C357.282 29.9637 357.408 29.9697 357.508 29.9792C357.605 29.9887 357.68 30.0042 357.737 30.0327C357.79 30.0611 357.83 30.0926 357.855 30.1241C357.88 30.1586 357.893 30.1996 357.893 30.25V33.6265H362.097V30.25C362.097 30.1996 362.109 30.1586 362.134 30.1241C362.159 30.0926 362.2 30.0611 362.253 30.0327C362.31 30.0042 362.385 29.9887 362.482 29.9792C362.582 29.9697 362.707 29.9637 362.86 29.9637C363.004 29.9637 363.127 29.9697 363.226 29.9792C363.323 29.9887 363.398 30.0042 363.454 30.0327C363.511 30.0611 363.548 30.0926 363.574 30.1241C363.598 30.1586 363.611 30.1996 363.611 30.25V38.5563ZM377.743 38.5654C377.743 38.6064 377.73 38.6473 377.705 38.6852C377.68 38.7197 377.643 38.7512 377.587 38.7732C377.534 38.7922 377.455 38.8111 377.358 38.8237C377.261 38.8362 377.139 38.8426 376.992 38.8426C376.845 38.8426 376.723 38.8362 376.626 38.8237C376.526 38.8111 376.448 38.7922 376.385 38.7732C376.326 38.7512 376.282 38.7197 376.257 38.6852C376.235 38.6473 376.222 38.6064 376.222 38.5654V33.7842C376.222 33.5449 376.229 33.2991 376.238 33.0504C376.251 32.8012 376.267 32.5558 376.285 32.3165C376.144 32.5623 375.991 32.8046 375.822 33.0405C375.654 33.2772 375.484 33.5131 375.315 33.7463L371.812 38.5654C371.772 38.6128 371.734 38.6568 371.699 38.6947C371.665 38.7292 371.621 38.7607 371.571 38.7831C371.518 38.8016 371.452 38.8172 371.374 38.8271C371.292 38.8362 371.196 38.8426 371.08 38.8426C370.945 38.8426 370.836 38.8362 370.751 38.8237C370.664 38.8111 370.595 38.7922 370.545 38.7732C370.492 38.7512 370.455 38.7197 370.435 38.6852C370.414 38.6473 370.401 38.6064 370.401 38.5654V30.2406C370.401 30.1965 370.414 30.1586 370.435 30.121C370.455 30.0831 370.495 30.0546 370.554 30.0297C370.611 30.0042 370.689 29.9887 370.786 29.9792C370.886 29.9697 371.005 29.9637 371.146 29.9637C371.437 29.9637 371.64 29.9887 371.749 30.0327C371.859 30.0801 371.915 30.1495 371.915 30.2406V35.0471C371.915 35.2898 371.909 35.5257 371.896 35.7654C371.883 36.0016 371.868 36.2349 371.85 36.4708C371.99 36.2349 372.131 36.0081 372.275 35.7809C372.419 35.5575 372.576 35.3369 372.738 35.1226L376.285 30.2406C376.323 30.1905 376.36 30.1495 376.401 30.1112C376.438 30.0737 376.489 30.0452 376.548 30.0232C376.604 30.0012 376.674 29.9887 376.755 29.9792C376.833 29.9697 376.936 29.9637 377.064 29.9637C377.192 29.9637 377.301 29.9697 377.389 29.9792C377.477 29.9887 377.549 30.0042 377.602 30.0297C377.652 30.0546 377.69 30.0831 377.711 30.121C377.733 30.1586 377.743 30.1996 377.743 30.25V38.5654ZM391.261 38.6188C391.261 38.6568 391.249 38.6882 391.227 38.7167C391.208 38.7447 391.168 38.7672 391.108 38.7861C391.052 38.805 390.974 38.8172 390.88 38.8271C390.786 38.8362 390.664 38.8426 390.517 38.8426C390.348 38.8426 390.207 38.8362 390.101 38.8237C389.994 38.8111 389.907 38.7922 389.842 38.7732C389.772 38.7512 389.722 38.7228 389.694 38.6882C389.663 38.6538 389.641 38.6158 389.629 38.5748L388.749 36.4234C388.64 36.1466 388.521 35.9069 388.397 35.7085C388.271 35.5072 388.127 35.3463 387.962 35.2235C387.796 35.1006 387.611 35.0126 387.401 34.9557C387.195 34.9022 386.957 34.8738 386.688 34.8738H386.047V38.6094C386.047 38.6412 386.031 38.6727 386 38.7038C385.969 38.7322 385.924 38.7576 385.863 38.7766C385.803 38.7952 385.722 38.8111 385.624 38.8237C385.528 38.8362 385.411 38.8426 385.284 38.8426C385.155 38.8426 385.043 38.8362 384.946 38.8237C384.848 38.8111 384.767 38.7952 384.707 38.7766C384.645 38.7576 384.601 38.7322 384.573 38.7038C384.548 38.6727 384.533 38.6412 384.533 38.6094V30.1775C384.533 30.1461 384.548 30.1176 384.573 30.0892C384.601 30.0611 384.645 30.0391 384.707 30.0202C384.767 30.0012 384.848 29.9887 384.946 29.9792C385.043 29.9697 385.155 29.9637 385.284 29.9637C385.411 29.9637 385.528 29.9697 385.624 29.9792C385.722 29.9887 385.803 30.0012 385.863 30.0202C385.924 30.0391 385.969 30.0611 386 30.0892C386.031 30.1176 386.047 30.1461 386.047 30.1775V33.6549H386.688C386.919 33.6549 387.132 33.6299 387.323 33.5764C387.517 33.5259 387.693 33.4375 387.852 33.3177C388.012 33.1982 388.153 33.044 388.277 32.852C388.402 32.6628 388.518 32.4299 388.621 32.1587L389.391 30.25C389.403 30.1996 389.425 30.1586 389.453 30.121C389.485 30.0831 389.531 30.0546 389.591 30.0297C389.654 30.0042 389.735 29.9887 389.835 29.9792C389.935 29.9697 390.069 29.9637 390.235 29.9637C390.379 29.9637 390.501 29.9697 390.595 29.9792C390.692 29.9887 390.765 30.0012 390.818 30.0202C390.867 30.0391 390.902 30.0611 390.921 30.0892C390.939 30.1176 390.949 30.1461 390.949 30.1775C390.949 30.231 390.942 30.2909 390.927 30.3508C390.911 30.4139 390.886 30.4833 390.858 30.5651L390.069 32.392C389.948 32.6976 389.813 32.9555 389.669 33.1668C389.526 33.3746 389.382 33.5479 389.234 33.6868C389.088 33.8251 388.937 33.9321 388.787 34.0107C388.634 34.0865 388.487 34.1464 388.346 34.1904V34.2093C388.558 34.2818 388.756 34.3732 388.937 34.4771C389.119 34.581 389.285 34.71 389.441 34.8646C389.597 35.019 389.742 35.2014 389.876 35.4123C390.011 35.627 390.135 35.8693 390.252 36.1466L391.158 38.2503C391.183 38.2946 391.201 38.3325 391.215 38.3701C391.227 38.408 391.236 38.4425 391.243 38.477C391.249 38.5119 391.252 38.5374 391.255 38.5593C391.258 38.5813 391.261 38.6003 391.261 38.6188ZM403.166 38.5654C403.166 38.6378 403.141 38.6947 403.091 38.7292C403.044 38.7672 402.975 38.7952 402.89 38.8141C402.803 38.8331 402.677 38.8426 402.515 38.8426C402.355 38.8426 402.227 38.8331 402.134 38.8141C402.04 38.7952 401.971 38.7672 401.927 38.7292C401.883 38.6947 401.865 38.6378 401.865 38.5654V37.7337C401.502 38.1212 401.101 38.424 400.657 38.6378C400.216 38.8521 399.747 38.9624 399.253 38.9624C398.818 38.9624 398.423 38.9056 398.073 38.7891C397.722 38.6757 397.422 38.5119 397.176 38.2976C396.929 38.0804 396.734 37.816 396.597 37.5039C396.462 37.1887 396.394 36.833 396.394 36.4333C396.394 35.9638 396.487 35.5606 396.675 35.214C396.866 34.8708 397.138 34.5841 397.492 34.3573C397.845 34.1275 398.28 33.9575 398.793 33.8441C399.306 33.7308 399.885 33.6739 400.525 33.6739H401.661V33.0283C401.661 32.7068 401.627 32.4235 401.561 32.1777C401.492 31.9319 401.386 31.7275 401.236 31.5668C401.085 31.4029 400.892 31.2801 400.654 31.1951C400.416 31.1132 400.122 31.0722 399.775 31.0722C399.399 31.0722 399.068 31.1162 398.77 31.2045C398.473 31.296 398.214 31.3935 397.992 31.5007C397.767 31.6077 397.583 31.7055 397.432 31.7966C397.282 31.8849 397.173 31.9289 397.098 31.9289C397.05 31.9289 397.006 31.916 396.969 31.8941C396.932 31.869 396.9 31.831 396.872 31.7807C396.847 31.7336 396.826 31.6707 396.813 31.5921C396.8 31.5163 396.794 31.4313 396.794 31.34C396.794 31.1856 396.806 31.0627 396.828 30.9743C396.85 30.8864 396.9 30.8014 396.985 30.7191C397.067 30.6407 397.206 30.5462 397.41 30.4392C397.61 30.3319 397.842 30.2344 398.104 30.1431C398.367 30.0546 398.656 29.9822 398.968 29.9227C399.278 29.8624 399.594 29.8343 399.912 29.8343C400.504 29.8343 401.007 29.9038 401.424 30.0391C401.839 30.1745 402.174 30.3729 402.431 30.6341C402.687 30.8959 402.875 31.2201 402.991 31.6077C403.106 31.9953 403.166 32.4454 403.166 32.962V38.5654ZM401.661 34.7733H400.369C399.954 34.7733 399.594 34.8078 399.287 34.8772C398.983 34.9496 398.73 35.0536 398.526 35.192C398.327 35.3307 398.176 35.4973 398.082 35.6899C397.988 35.8848 397.942 36.1056 397.942 36.3574C397.942 36.789 398.076 37.1322 398.348 37.3875C398.621 37.6423 399.002 37.7716 399.491 37.7716C399.888 37.7716 400.253 37.6707 400.595 37.4663C400.932 37.2645 401.289 36.9528 401.661 36.5338V34.7733Z" fill="#12305C"/>
<path d="M93.6992 77.5383V75.7304C95.2077 75.341 96.2179 74.9139 96.7294 74.4246C97.2405 73.9472 97.5779 73.2691 97.7274 72.39C97.8894 71.5112 97.9636 70.1547 97.9636 68.3469V36.515C97.9636 34.8323 97.9019 33.5892 97.7891 32.8231C97.6647 32.0445 97.4651 31.4543 97.1788 31.0152C96.904 30.5882 96.5298 30.2491 96.0684 29.9856C95.6074 29.7341 94.8088 29.4455 93.6992 29.1315V27.3233H113.677C117.555 27.3233 120.66 27.7377 123.018 28.5789C125.363 29.4079 127.108 30.6382 128.255 32.2709C129.403 33.9032 129.976 36.0001 129.976 38.574C129.976 40.7092 129.565 42.5675 128.755 44.1368C127.931 45.7069 126.871 47.0002 125.55 48.0298C124.24 49.0594 122.544 50.0262 120.474 50.9052V51.2317C123.791 52.2364 126.298 53.7932 127.994 55.8905C129.702 57.9874 130.563 60.4862 130.563 63.3745C130.563 66.7145 129.814 69.4266 128.343 71.5363C126.871 73.6461 124.813 75.1778 122.157 76.1195C119.501 77.0611 116.284 77.5383 112.505 77.5383H93.6992ZM111.195 49.838C114.899 49.838 117.73 48.934 119.688 47.1381C121.646 45.3299 122.631 42.718 122.631 39.2776C122.631 37.5823 122.356 36.1885 121.809 35.0709C121.26 33.9533 120.498 33.0616 119.539 32.3965C118.578 31.7434 117.444 31.2663 116.122 30.9773C114.812 30.7012 113.39 30.5628 111.856 30.5628C110.921 30.5628 109.712 30.5882 108.203 30.6382C106.681 30.6887 105.559 30.7262 104.798 30.7763V49.838H111.195ZM104.798 74.0477C106.582 74.2108 108.564 74.2987 110.759 74.2987C113.951 74.2987 116.421 73.8968 118.192 73.0931C119.95 72.277 121.234 71.0843 122.021 69.502C122.818 67.9198 123.217 65.936 123.217 63.5626C123.217 61.1768 122.78 59.2179 121.92 57.6733C121.048 56.129 119.713 54.9735 117.917 54.2203C116.109 53.4542 113.627 53.0776 110.46 53.0776H104.798V74.0477Z" fill="#12325F"/>
<path d="M163.802 71.5999C162.321 73.162 160.96 74.3783 159.728 75.2726C158.485 76.155 157.134 76.8468 155.654 77.3479C154.174 77.8484 152.539 78.0991 150.751 78.0991C145.99 78.0991 142.39 76.6561 139.962 73.7821C137.534 70.9082 136.326 66.6629 136.326 61.0466C136.326 57.5765 136.942 54.5118 138.174 51.8647C139.417 49.2049 141.182 47.1544 143.468 45.7114C145.765 44.2683 148.394 43.541 151.378 43.541C153.712 43.541 155.701 43.9224 157.348 44.662C158.994 45.4129 160.308 46.4266 161.291 47.7263C162.274 49.0147 163.032 50.6481 163.577 52.6159C164.121 54.5831 164.429 57.1472 164.5 60.3192H142.639V60.9393C142.639 63.6938 142.946 66.0072 143.563 67.8795C144.166 69.7515 145.173 71.2181 146.571 72.2795C147.98 73.3411 149.792 73.8655 152.042 73.8655C153.936 73.8655 155.642 73.5197 157.158 72.8045C158.674 72.0888 160.178 70.9321 161.682 69.3344L163.802 71.5999ZM157.976 57.4092C157.833 54.905 157.525 52.8423 157.039 51.2446C156.554 49.6585 155.821 48.4302 154.849 47.5833C153.878 46.7369 152.611 46.3076 151.035 46.3076C148.655 46.3076 146.748 47.2617 145.327 49.1932C143.906 51.113 143.065 53.8557 142.816 57.4092H157.976Z" fill="#12305C"/>
<path d="M198.325 53.8202C197.639 51.4472 196.845 49.7061 195.969 48.6093C195.092 47.5117 193.718 46.9755 191.835 46.9755H188.401V68.8334C188.401 71.5878 188.697 73.3529 189.289 74.1516C189.882 74.9389 191.077 75.4995 192.877 75.8214V77.5383H177.991V75.8214C179.897 75.4755 181.118 74.8673 181.662 73.9969C182.195 73.1143 182.468 71.3972 182.468 68.8334V46.9755H179.069C177.126 46.9755 175.716 47.5834 174.841 48.7997C173.963 50.028 173.23 51.6975 172.65 53.8202H169.357V44.1372H201.594V53.8202H198.325Z" fill="#12305C"/>
<path d="M222.747 77.5382V75.8214C224.228 75.4277 225.211 74.8433 225.684 74.0563C226.159 73.2812 226.395 71.8503 226.395 69.7875V46.9754H219.005C218.248 54.8694 217.134 61.3326 215.678 66.353C214.221 71.3853 212.74 74.6051 211.237 76C209.733 77.3952 207.98 78.0991 205.991 78.0991C204.19 78.0991 202.698 77.908 201.514 77.5382V70.0617H204.569C204.711 71.9936 205.422 72.9591 206.724 72.9591C208.809 72.9591 210.609 70.0496 212.136 64.2304C213.665 58.3995 214.422 53.8201 214.422 50.4573C214.422 47.6907 213.345 46.1524 211.201 45.8544V44.1371H236.071V45.8544C234.615 46.1524 233.643 46.713 233.146 47.5116C232.649 48.3111 232.399 49.7538 232.399 51.8286V69.7875C232.399 71.8263 232.625 73.2455 233.087 74.0324C233.549 74.8077 234.544 75.4038 236.071 75.8214V77.5382H222.747Z" fill="#12305C"/>
<path d="M271.058 71.5999C269.577 73.162 268.216 74.3783 266.983 75.2726C265.741 76.155 264.39 76.8468 262.91 77.3479C261.43 77.8484 259.795 78.0991 258.007 78.0991C253.246 78.0991 249.646 76.6561 247.218 73.7821C244.79 70.9082 243.582 66.6629 243.582 61.0466C243.582 57.5765 244.198 54.5118 245.429 51.8647C246.673 49.2049 248.438 47.1544 250.724 45.7114C253.021 44.2683 255.65 43.541 258.634 43.541C260.968 43.541 262.957 43.9224 264.603 44.662C266.25 45.4129 267.565 46.4266 268.547 47.7263C269.53 49.0147 270.288 50.6481 270.833 52.6159C271.377 54.5831 271.685 57.1472 271.756 60.3192H249.895V60.9393C249.895 63.6938 250.202 66.0072 250.818 67.8795C251.422 69.7515 252.429 71.2181 253.826 72.2795C255.235 73.3411 257.048 73.8655 259.298 73.8655C261.192 73.8655 262.898 73.5197 264.414 72.8045C265.929 72.0888 267.434 70.9321 268.938 69.3344L271.058 71.5999ZM265.231 57.4092C265.089 54.905 264.781 52.8423 264.295 51.2446C263.81 49.6585 263.075 48.4302 262.104 47.5833C261.134 46.7369 259.867 46.3076 258.291 46.3076C255.91 46.3076 254.004 47.2617 252.583 49.1932C251.162 51.113 250.321 53.8557 250.072 57.4092H265.231Z" fill="#12305C"/>
<path d="M301.211 77.5383V75.8214L297.433 66.6751C296.532 64.4808 295.55 63.0976 294.483 62.5133C293.418 61.9288 292.115 61.6429 290.564 61.6429H288.065V68.8095C288.065 71.7908 288.313 73.5914 288.822 74.2233C289.332 74.8434 290.339 75.38 291.842 75.8214V77.5383H278.484V75.8214C280.059 75.38 281.054 74.7481 281.468 73.9252C281.883 73.0905 282.096 71.3854 282.096 68.8095V51.7931C282.096 49.7417 281.847 48.3111 281.35 47.5117C280.852 46.7131 279.834 46.1525 278.318 45.8544V44.1372H291.842V45.8544C290.434 46.1525 289.451 46.6891 288.894 47.4643C288.337 48.2274 288.065 49.6704 288.065 51.7931V59.0192H290.564C292.068 59.0192 293.276 58.566 294.187 57.6478C295.099 56.7179 296.13 54.7978 297.29 51.8647C298.475 48.9312 299.706 46.7965 301.009 45.4729C302.3 44.1372 304.456 43.4814 307.452 43.4814C308.447 43.4814 309.584 43.6362 310.862 43.9704V50.7793H307.736C307.44 49.3124 306.658 48.5733 305.415 48.5733C304.444 48.5733 303.65 48.8474 303.046 49.3841C302.453 49.9207 301.72 51.1491 300.867 53.0809C299.245 56.7654 297.646 58.9714 296.083 59.7228V59.9256C299.41 60.7721 301.874 62.7518 303.473 65.8643L306.102 71.0395C306.943 72.6729 307.724 73.8178 308.482 74.4857C309.228 75.1418 310.318 75.5946 311.727 75.8214V77.5383H301.211Z" fill="#12305C"/>
<path d="M336.434 72.542L335.913 72.399C333.9 74.4735 332.004 75.9404 330.24 76.799C328.463 77.6698 326.58 78.0991 324.603 78.0991C322.838 78.0991 321.287 77.7528 319.949 77.0615C318.61 76.3818 317.579 75.4155 316.857 74.1637C316.147 72.9235 315.779 71.4805 315.779 69.8467C315.779 66.4482 317.449 63.8249 320.801 61.9769C324.141 60.1281 329.151 59.0431 335.842 58.7449V56.4672C335.842 54.0465 335.604 52.1384 335.143 50.7436C334.682 49.3483 333.958 48.3229 332.963 47.6672C331.969 47.0111 330.631 46.689 328.973 46.689C327.161 46.689 325.715 47.1661 324.614 48.12C323.513 49.0742 322.684 50.505 322.139 52.4248H317.592V47.8818C319.807 46.713 321.654 45.8544 323.134 45.3055C324.614 44.7572 326.094 44.3279 327.575 44.0181C329.055 43.7078 330.56 43.541 332.087 43.541C334.385 43.541 336.221 43.9107 337.606 44.6499C338.992 45.3773 340.034 46.4983 340.733 48.0126C341.42 49.527 341.775 51.8169 341.775 54.8694V67.0209C341.775 68.7499 341.787 69.9661 341.81 70.6696C341.834 71.3853 341.893 72.041 342.012 72.6493C342.13 73.2577 342.308 73.7344 342.532 74.0923C342.769 74.4617 343.113 74.7715 343.563 75.0222C344.013 75.2848 344.747 75.5472 345.766 75.8214V77.5382H336.256L336.434 72.542ZM335.842 61.6068C331.14 61.6546 327.623 62.2868 325.289 63.4909C322.957 64.7075 321.784 66.532 321.784 68.9763C321.784 70.312 322.056 71.3496 322.589 72.1245C323.123 72.8875 323.786 73.4242 324.603 73.7105C325.408 74.0085 326.367 74.1515 327.481 74.1515C329.055 74.1515 330.477 73.7704 331.768 72.9948C333.046 72.2317 334.041 71.2541 334.764 70.0617C335.474 68.869 335.842 67.7005 335.842 66.532V61.6068Z" fill="#12305C"/>
<path d="M360.476 76.4893V83.8588C360.476 85.3732 360.535 86.506 360.63 87.2452C360.737 87.9964 360.926 88.5809 361.186 89.0102C361.459 89.4517 361.838 89.7971 362.335 90.0834C362.833 90.3576 363.638 90.6201 364.739 90.8465V92.5637H350.587V90.8465C351.417 90.6201 352.103 90.3815 352.624 90.1309C353.133 89.8927 353.536 89.5225 353.82 89.0458C354.092 88.5687 354.282 87.9248 354.377 87.1139C354.46 86.2914 354.507 85.2181 354.507 83.8588V53.8919C354.507 52.2103 354.484 51.0179 354.437 50.3026C354.388 49.5988 354.305 49.0026 354.164 48.5376C354.022 48.0726 353.82 47.6908 353.56 47.3927C353.287 47.0828 352.931 46.8325 352.482 46.6179C352.032 46.415 351.285 46.2003 350.244 45.9856V44.1372L358.392 43.8274H360.512L360.062 49.5154L360.582 49.6587C362.015 48.1918 363.152 47.1306 363.981 46.4623C364.81 45.7949 365.674 45.2465 366.563 44.8051C367.451 44.3636 368.316 44.0417 369.133 43.863C369.95 43.6722 370.826 43.5771 371.751 43.5771C375.576 43.5771 378.501 45.0197 380.549 47.8937C382.598 50.7676 383.617 54.9769 383.617 60.5219C383.617 64.3735 383.037 67.6051 381.888 70.2165C380.728 72.8402 379.046 74.8078 376.831 76.1195C374.628 77.4431 371.999 78.0992 368.944 78.0992C367.227 78.0992 365.687 77.9558 364.29 77.6578C362.904 77.3715 361.637 76.9778 360.476 76.4893ZM360.476 64.9579C360.476 67.1996 360.618 68.9169 360.891 70.1331C361.174 71.3376 361.66 72.3275 362.371 73.0788C363.069 73.8418 363.91 74.4023 364.87 74.7838C365.83 75.1536 367.097 75.3326 368.671 75.3326C371.466 75.3326 373.574 74.1638 374.984 71.8264C376.393 69.4891 377.092 66.0312 377.092 61.4639C377.092 52.3415 374.451 47.7746 369.157 47.7746C367.854 47.7746 366.741 47.9771 365.806 48.3825C364.87 48.788 363.934 49.4558 363.01 50.3619C362.087 51.2682 361.436 52.1507 361.044 52.9972C360.665 53.8441 360.476 54.7622 360.476 55.7399V64.9579Z" fill="#12305C"/>
<path d="M390.916 77.5383V75.8214C392.419 75.4039 393.414 74.8199 393.912 74.0564C394.409 73.3051 394.658 71.8743 394.658 69.7876V51.8287C394.658 49.7061 394.398 48.2512 393.876 47.4761C393.355 46.7012 392.373 46.1525 390.916 45.8544V44.1372H404.511V45.8544C402.936 46.1525 401.894 46.7252 401.384 47.5599C400.875 48.4064 400.627 49.8251 400.627 51.8287V58.2922C403.268 58.0059 405.826 57.8746 408.325 57.8746C416.887 57.8746 421.162 61.0942 421.162 67.5455C421.162 70.8131 420.085 73.2934 417.941 74.9863C415.786 76.6918 411.972 77.5383 406.489 77.5383H390.916ZM400.627 61.0467V74.6052C401.918 74.7004 403.446 74.7481 405.21 74.7481C409 74.7481 411.535 74.1516 412.825 72.9832C414.104 71.8025 414.744 69.9901 414.744 67.5455C414.744 62.9308 411.925 60.6291 406.276 60.6291C404.381 60.6291 402.498 60.7721 400.627 61.0467Z" fill="#12305C"/>
</g>
<defs>
<clipPath id="clip0_2079_1652">
<rect width="421.359" height="100" fill="white"/>
</clipPath>
</defs>
</svg>
