<svg width="24" height="24" viewBox="0 0 24 24" fill="none" xmlns="http://www.w3.org/2000/svg">
<path d="M7.6155 22C7.15517 22 6.77083 21.8458 6.4625 21.5375C6.15417 21.2292 6 20.8448 6 20.3845V3.6155C6 3.15517 6.15417 2.77083 6.4625 2.4625C6.77083 2.15417 7.15517 2 7.6155 2H16.3845C16.8448 2 17.2292 2.15417 17.5375 2.4625C17.8458 2.77083 18 3.15517 18 3.6155V20.3845C18 20.8448 17.8458 21.2292 17.5375 21.5375C17.2292 21.8458 16.8448 22 16.3845 22H7.6155ZM12 20.0385C12.2063 20.0385 12.3862 19.9619 12.5395 19.8088C12.6927 19.6554 12.7692 19.4756 12.7692 19.2693C12.7692 19.0627 12.6927 18.8829 12.5395 18.7297C12.3862 18.5766 12.2063 18.5 12 18.5C11.7937 18.5 11.6138 18.5766 11.4605 18.7297C11.3073 18.8829 11.2308 19.0627 11.2308 19.2693C11.2308 19.4756 11.3073 19.6554 11.4605 19.8088C11.6138 19.9619 11.7937 20.0385 12 20.0385ZM7 16.5385H17V5.5H7V16.5385Z" fill="white"/>
</svg>
