<svg width="109" height="105" viewBox="0 0 109 105" fill="none" xmlns="http://www.w3.org/2000/svg">
<path d="M54.5 105C46.4002 105 38.9947 103.694 32.2834 101.081C25.6493 98.4687 19.9023 94.7805 15.0425 90.0165C10.2597 85.3293 6.55697 79.7969 3.93418 73.4193C1.31139 66.9649 0 59.9341 0 52.3271C0 44.7201 1.31139 37.7278 3.93418 31.3502C6.55697 24.9726 10.2983 19.4402 15.1582 14.753C20.018 10.0659 25.8036 6.45444 32.5149 3.91877C39.3033 1.30626 46.7859 0 54.9628 0C62.9084 0 70.1596 1.22942 76.7166 3.68825C83.3507 6.14709 89.0591 9.64324 93.8418 14.1767C98.7017 18.6334 102.443 23.9737 105.066 30.1976C107.689 36.3447 109 43.1065 109 50.483C109 57.0143 108.151 62.6619 106.454 67.4259C104.834 72.1899 102.443 75.8782 99.2803 78.4907C96.1175 81.0263 92.2219 82.2942 87.5934 82.2942C83.0421 82.2942 79.4165 80.9495 76.7166 78.2601C74.0166 75.494 72.6667 71.5368 72.6667 66.3886V59.2426L73.2452 52.4424L72.2038 38.2656V24.0889H83.6592V64.3139C83.6592 67.3107 84.2764 69.4237 85.5106 70.6531C86.7449 71.8057 88.2105 72.382 89.9076 72.382C92.1447 72.382 94.0347 71.5368 95.5775 69.8463C97.1203 68.1559 98.2774 65.697 99.0488 62.4698C99.8202 59.1658 100.206 55.247 100.206 50.7135C100.206 44.4127 99.126 38.6883 96.966 33.5401C94.8061 28.3919 91.6819 23.9737 87.5934 20.2854C83.5821 16.5203 78.7994 13.6389 73.2452 11.641C67.7682 9.64325 61.6741 8.64434 54.9628 8.64434C48.1745 8.64434 41.9646 9.72009 36.3333 11.8716C30.7792 14.0231 25.9965 17.0582 21.9851 20.9769C18.051 24.8189 15.0039 29.4292 12.8439 34.8079C10.684 40.1098 9.60403 45.9495 9.60403 52.3271C9.60403 58.7816 10.6454 64.6981 12.7282 70.0768C14.8882 75.4555 17.9352 80.0659 21.8694 83.9078C25.8036 87.8266 30.5092 90.8617 35.9862 93.0132C41.5403 95.1647 47.7116 96.2404 54.5 96.2404C58.0485 96.2404 61.7898 95.8178 65.724 94.9726C69.6582 94.2042 73.3609 92.9363 76.8323 91.169L79.725 99.5829C76.1766 101.35 72.1267 102.695 67.5754 103.617C63.0241 104.539 58.6656 105 54.5 105ZM52.0701 82.2942C46.5931 82.2942 41.7332 81.0263 37.4904 78.4907C33.2477 75.955 29.8921 72.4588 27.4236 68.0022C25.0322 63.5456 23.8365 58.4742 23.8365 52.7881C23.8365 47.1021 25.0322 42.0692 27.4236 37.6893C29.8921 33.2327 33.2477 29.775 37.4904 27.3161C41.7332 24.7805 46.5931 23.5126 52.0701 23.5126C57.3156 23.5126 61.9055 24.6268 65.8397 26.8551C69.851 29.0834 72.9752 32.3875 75.2123 36.7673C77.4494 41.0703 78.5679 46.4105 78.5679 52.7881C78.5679 59.1658 77.4494 64.5445 75.2123 68.9243C73.0524 73.3041 70.0053 76.6465 66.0711 78.9517C62.1369 81.18 57.4699 82.2942 52.0701 82.2942ZM53.9214 72.1515C57.4699 72.1515 60.6327 71.3831 63.4098 69.8463C66.1868 68.3095 68.3854 66.0812 70.0053 63.1614C71.6253 60.2415 72.4352 56.7838 72.4352 52.7881C72.4352 48.7157 71.6253 45.258 70.0053 42.4149C68.3854 39.5719 66.1868 37.4204 63.4098 35.9605C60.6327 34.4237 57.4699 33.6553 53.9214 33.6553C50.2958 33.6553 47.0945 34.4237 44.3174 35.9605C41.5403 37.4973 39.3804 39.7256 37.8376 42.6454C36.2948 45.4885 35.5234 48.8694 35.5234 52.7881C35.5234 56.7069 36.2948 60.1262 37.8376 63.0461C39.3804 65.8891 41.5403 68.1175 44.3174 69.7311C47.0945 71.3447 50.2958 72.1515 53.9214 72.1515Z" fill="#DBE4F0"/>
</svg>
