<svg width="85" height="140" viewBox="0 0 85 140" fill="none" xmlns="http://www.w3.org/2000/svg">
<path d="M1.4502 90.2828V98.665H7.76083V139.961H14.8236V98.665H71.4459V139.961H78.5086V98.665H84.8193V90.2828H1.4502Z" fill="#DBE4F0"/>
<path d="M41.4084 66.0675L27.9419 58.3414H27.909C26.8646 59.4646 25.7902 60.509 24.7157 61.519L24.1011 62.0949C22.1929 63.8942 20.0798 65.3268 17.0699 65.5675C13.8766 65.8239 11.265 63.6048 11.265 63.6048C11.265 63.6048 8.42125 61.3915 8.42555 56.9232L4.70651 53.9176C3.45871 52.9162 1.63643 53.1139 0.637908 54.3602C-0.362051 55.6066 -0.165785 57.4289 1.08201 58.4288L6.7007 62.943V75.2147C6.7007 75.2763 1.7754 84.9206 1.7754 84.9206C1.03617 86.3389 1.58773 88.0823 3.00457 88.8216C3.43149 89.0451 3.88706 89.1511 4.33833 89.1511C5.3827 89.1511 6.39125 88.5838 6.90556 87.5924L11.8867 78.0226L17.4581 87.6984C17.9925 88.6239 18.9667 89.1511 19.9681 89.1511C20.4566 89.1511 20.9523 89.025 21.4078 88.7628C22.7932 87.9634 23.2688 86.1942 22.4708 84.8103L17.6086 76.3665H35.605V86.2515C35.605 87.8474 36.9 89.1468 38.4988 89.1468C40.0976 89.1468 41.4285 87.8517 41.4285 86.2515L41.4084 66.0675Z" fill="#DBE4F0"/>
<path d="M41.8826 39.9411C41.4042 39.5872 39.0361 38.4411 38.006 42.3636C37.7825 43.216 37.4788 44.0641 37.072 44.8434C35.5835 47.7001 33.6967 50.3131 31.8902 52.9763C31.0636 54.1869 30.2384 55.4017 29.4147 56.6137L42.066 63.8169C42.066 63.8169 44.5072 61.1494 44.8496 61.2998C45.3223 61.5089 45.8023 61.7138 46.2779 61.9215C47.6718 62.5261 49.1216 62.8097 50.6459 62.7195C53.2332 62.5691 55.9265 61.1966 56.17 58.0936C56.3964 55.2513 49.5012 53.0293 48.8952 52.4606C47.1102 50.7759 46.5071 48.8032 44.5014 47.3734C44.149 47.127 43.7923 46.8734 43.4227 46.6614C43.1992 46.5368 43.1276 46.3921 43.1534 46.1485C43.2393 45.3205 43.3224 44.4896 43.3883 43.6601C43.5086 42.1716 43.076 40.8178 41.8826 39.9411Z" fill="#DBE4F0"/>
<path d="M44.745 0C42.4557 0.697679 40.4085 1.94261 38.7495 3.58438H42.576C42.8969 2.1618 43.6791 0.9183 44.745 0Z" fill="#DBE4F0"/>
<path d="M55.5483 3.5844H59.2344C57.6299 1.99564 55.6557 0.777927 53.4524 0.0687866C54.4824 0.981357 55.236 2.19621 55.5483 3.5844Z" fill="#DBE4F0"/>
<path d="M49.0643 11.6929C46.2607 11.6929 43.8682 9.94517 42.8898 7.48682H35.9516C34.9904 9.42656 34.4374 11.607 34.4374 13.9164C34.4374 21.9561 40.9543 28.4688 48.9927 28.4688C57.0296 28.4688 63.5436 21.9561 63.5436 13.9164C63.5436 11.607 62.9906 9.42656 62.0294 7.48682H55.236C54.2575 9.94517 51.8679 11.6929 49.0643 11.6929Z" fill="#DBE4F0"/>
<path d="M49.0643 8.78616C51.1301 8.78616 52.8134 7.10285 52.8134 5.0356C52.8134 2.97122 51.1301 1.2879 49.0643 1.2879C46.9985 1.2879 45.3152 2.97122 45.3152 5.0356C45.3138 7.10428 46.9956 8.78616 49.0643 8.78616Z" fill="#DBE4F0"/>
<path d="M49.1488 133.324C49.1474 137.007 52.1358 139.999 55.8247 139.999C59.5094 139.999 62.4993 137.01 62.4993 133.324L62.5021 101.443H49.1517L49.1488 133.324Z" fill="#DBE4F0"/>
<path d="M34.8472 101.444L34.85 133.325C34.85 137.012 37.8399 140 41.526 140C45.2178 140 48.2062 137.009 48.2048 133.325L48.2019 101.444H34.8472Z" fill="#DBE4F0"/>
<path d="M16.9696 62.8642C18.5555 62.8642 19.9796 62.0534 21.2474 60.9101C26.091 56.5407 30.5121 50.0281 30.5121 50.0281C32.0206 47.8333 33.4446 45.756 34.6022 43.5341C34.8787 42.9983 35.1179 42.3593 35.3099 41.6416C36.4846 37.159 39.3885 36.6733 40.5819 36.6733C41.9672 36.6733 42.9786 37.2406 43.4256 37.5386L43.4027 37.4698C43.46 37.5085 43.5445 37.5601 43.5803 37.5859C45.0387 38.6532 45.9369 40.1875 46.1991 42.0069C46.2163 42.1115 46.2177 42.2247 46.2292 42.3335C46.2492 42.5241 46.2707 42.7117 46.2793 42.9066C46.2894 43.2246 46.2822 43.5498 46.2535 43.8822C46.2249 44.2518 46.1919 44.6214 46.159 44.9881C47.7048 46.107 48.5844 47.3577 49.3623 48.468C49.8035 49.0954 50.1889 49.6484 50.6631 50.1355C50.8522 50.2286 51.1072 50.3404 51.4023 50.4765C54.2002 51.7529 58.7702 53.8388 59.0381 57.5607C59.0596 57.8042 59.0596 58.0578 59.0367 58.3143C58.955 59.3328 58.6871 60.2784 58.2588 61.1265C56.9752 63.6951 54.2403 65.3956 50.7806 65.5976C48.9225 65.7122 47.0443 65.3856 45.2522 64.6363C44.9441 64.9429 44.606 65.2968 44.2823 65.6463L44.2622 86.2544C44.2622 86.5939 44.2192 86.9248 44.1619 87.2457H62.5036V79.5512C63.3789 77.9309 63.8904 76.0958 63.8904 74.0844V56.2441C63.8904 56.2441 65.1066 57.7326 65.3989 59.7769C65.8673 62.2998 65.8903 67.3554 65.3874 72.3653C65.0751 75.4697 67.3415 78.2404 70.4474 78.5469C70.6379 78.5684 70.8285 78.577 71.0147 78.577C73.8828 78.577 76.3383 76.4009 76.6305 73.4898C79.172 48.0697 64.0436 34.0215 52.6172 29.3111L48.9927 32.9629L45.4771 29.2725C45.4642 29.2753 45.4542 29.2753 45.4427 29.2811C43.3969 29.7696 35.615 33.7981 32.4704 35.8524C20.7016 43.5555 13.4984 52.5967 12.6962 53.5236C10.6562 55.8831 10.9169 59.4517 13.2764 61.4918C14.348 62.4129 15.6617 62.8642 16.9696 62.8642Z" fill="#DBE4F0"/>
</svg>
