<svg width="24" height="24" viewBox="0 0 24 24" fill="none" xmlns="http://www.w3.org/2000/svg">
<path d="M5.6155 19.9999C5.15517 19.9999 4.77083 19.8458 4.4625 19.5374C4.15417 19.2291 4 18.8448 4 18.3845V5.61545C4 5.15512 4.15417 4.77078 4.4625 4.46245C4.77083 4.15412 5.15517 3.99995 5.6155 3.99995H14.002L13.002 4.99995H5.6155C5.4615 4.99995 5.32042 5.06403 5.19225 5.1922C5.06408 5.32037 5 5.46145 5 5.61545V18.3845C5 18.5385 5.06408 18.6795 5.19225 18.8077C5.32042 18.9359 5.4615 18.9999 5.6155 18.9999H18.3845C18.5385 18.9999 18.6796 18.9359 18.8078 18.8077C18.9359 18.6795 19 18.5385 19 18.3845V10.8962L20 9.8962V18.3845C20 18.8448 19.8458 19.2291 19.5375 19.5374C19.2292 19.8458 18.8448 19.9999 18.3845 19.9999H5.6155ZM10 13.9999V11.3844L18.9443 2.44045C19.0544 2.33012 19.1704 2.25378 19.2923 2.21145C19.4141 2.16912 19.5423 2.14795 19.677 2.14795C19.8027 2.14795 19.9254 2.16912 20.0453 2.21145C20.1651 2.25378 20.2737 2.3237 20.3712 2.4212L21.4828 3.49995C21.5891 3.61028 21.6698 3.73178 21.725 3.86445C21.7802 3.99712 21.8078 4.13078 21.8078 4.26545C21.8078 4.39995 21.7875 4.52712 21.747 4.64695C21.7067 4.76695 21.6314 4.88203 21.5212 4.9922L12.5192 13.9999H10ZM11 12.9999H12.0923L18.7578 6.33445L18.2115 5.78845L17.602 5.2037L11 11.8057V12.9999Z" fill="#12305C"/>
</svg>
