<svg width="140" height="177" viewBox="0 0 140 177" xmlns="http://www.w3.org/2000/svg">
<path d="M91.1224 94.9075C91.1224 94.9075 80.5742 108.326 67.0973 94.9075C54.0261 82.2784 44.5174 94.9075 44.5174 94.9075L13.0312 156.727C12.1184 160.092 14.1279 163.553 17.5066 164.456H122.083C125.461 163.553 127.471 160.099 126.564 156.727L91.1224 94.9075ZM139.344 153.563L88.7643 68.7716V68.6138L88.6755 18.9247H92.1684C97.4044 18.9247 101.664 14.6876 101.664 9.45917C101.664 4.23705 97.4044 0 92.1684 0H41.4874C36.2449 0 31.9914 4.23705 31.9914 9.45917C31.9914 14.6876 36.2449 18.9247 41.4874 18.9247H44.5428L44.4414 68.6264L0.650959 153.563C-2.06217 163.66 3.95362 174.035 14.0835 176.738H125.911C136.054 174.035 142.07 163.66 139.344 153.563ZM124.219 170.41L15.7697 170.29C9.01856 168.484 5.01225 161.564 6.81889 154.845L50.8565 68.8663L50.9897 12.6164H41.4937C39.7505 12.6164 38.3305 11.202 38.3305 9.45917C38.3305 7.71636 39.7505 6.30822 41.4937 6.30822H92.1747C93.9179 6.30822 95.3316 7.72268 95.3316 9.45917C95.3316 11.202 93.9179 12.6164 92.1747 12.6164H82.6788L82.8372 68.658L133.163 154.952C134.976 161.69 130.964 168.611 124.219 170.41Z"/>
</svg>
