<svg width="24" height="25" viewBox="0 0 24 25" fill="none" xmlns="http://www.w3.org/2000/svg">
<path d="M12.0018 12.3652C12.4993 12.3652 12.9246 12.1881 13.2778 11.8338C13.6311 11.4794 13.8078 11.0535 13.8078 10.556C13.8078 10.0585 13.6306 9.63308 13.2763 9.27975C12.9219 8.92658 12.4959 8.75 11.9983 8.75C11.5008 8.75 11.0754 8.92717 10.7223 9.2815C10.3689 9.63583 10.1923 10.0618 10.1923 10.5595C10.1923 11.057 10.3694 11.4823 10.7238 11.8355C11.0781 12.1887 11.5041 12.3652 12.0018 12.3652ZM12 20.0135C13.9564 18.2622 15.4534 16.5823 16.4913 14.974C17.5291 13.3657 18.048 11.957 18.048 10.748C18.048 8.925 17.4689 7.42633 16.3105 6.252C15.1522 5.07767 13.7154 4.4905 12 4.4905C10.2847 4.4905 8.84786 5.07767 7.68953 6.252C6.53119 7.42633 5.95203 8.925 5.95203 10.748C5.95203 11.957 6.47094 13.3657 7.50878 14.974C8.54661 16.5823 10.0437 18.2622 12 20.0135ZM12 22.0095C9.48336 19.8288 7.59619 17.7994 6.33853 15.9212C5.08086 14.0429 4.45203 12.3185 4.45203 10.748C4.45203 8.44033 5.19844 6.57208 6.69128 5.14325C8.18428 3.71442 9.95386 3 12 3C14.0462 3 15.8158 3.71442 17.3088 5.14325C18.8016 6.57208 19.548 8.44033 19.548 10.748C19.548 12.3185 18.9192 14.0429 17.6615 15.9212C16.4039 17.7994 14.5167 19.8288 12 22.0095Z" fill="#12305C"/>
</svg>
