<svg viewBox="0 0 24 25" >
<path d="M11.9808 20.5V19.5H18.3845C18.5385 19.5 18.6796 19.4359 18.8077 19.3077C18.9359 19.1796 19 19.0385 19 18.8845V6.1155C19 5.9615 18.9359 5.82042 18.8077 5.69225C18.6796 5.56408 18.5385 5.5 18.3845 5.5H11.9808V4.5H18.3845C18.8448 4.5 19.2292 4.65417 19.5375 4.9625C19.8458 5.27083 20 5.65517 20 6.1155V18.8845C20 19.3448 19.8458 19.7292 19.5375 20.0375C19.2292 20.3458 18.8448 20.5 18.3845 20.5H11.9808ZM11.2692 16.0385L10.5673 15.3193L12.8865 13H4V12H12.8865L10.5673 9.68075L11.2692 8.9615L14.8077 12.5L11.2692 16.0385Z" />
</svg>
