<svg width="160" height="237" viewBox="0 0 160 237" xmlns="http://www.w3.org/2000/svg">
<path d="M47.3379 53.2194C47.011 43.6991 47.2748 33.6169 50.5267 25.7405C52.2415 21.6012 54.7134 18.2543 58.2922 15.883C61.8882 13.5059 67.0499 11.8265 74.5974 11.8265C83.0569 11.8265 90.1055 14.9961 95.1525 18.2957C97.6588 19.9396 99.6145 21.5775 100.928 22.7897C101.541 23.3589 102.134 23.9506 102.706 24.5637L102.763 24.6229V24.6288C103.263 25.2096 103.869 25.6832 104.547 26.0226C105.225 26.3619 105.96 26.5603 106.712 26.6064C107.464 26.6525 108.218 26.5455 108.93 26.2914C109.642 26.0373 110.298 25.6411 110.861 25.1255C111.425 24.6099 111.884 23.9849 112.213 23.2862C112.542 22.5876 112.735 21.8289 112.779 21.0536C112.824 20.2783 112.72 19.5014 112.474 18.7675C112.227 18.0335 111.843 17.3568 111.343 16.7759L107.128 20.6196C111.343 16.776 111.332 16.7641 111.332 16.7641L111.309 16.7346L111.251 16.6754C111.026 16.4121 110.792 16.1557 110.552 15.9067C109.914 15.2463 109.258 14.6054 108.584 13.9849C106.307 11.8961 103.871 9.99781 101.301 8.30815C95.0493 4.2339 85.8729 0 74.5974 0C65.3867 0 57.948 2.06373 52.0981 5.93101C46.231 9.81603 42.4056 15.2148 39.9738 21.1045C35.7412 31.3522 35.5347 43.5631 35.8559 53.2194H5.44198C2.27039 53.2194 -0.32767 55.8804 0.0336498 59.1209C3.56082 90.9343 35.3627 116.143 74.9243 118.135V165.572H86.3948V118.064C95.9415 117.477 105.353 115.445 114.325 112.033C114.383 112.711 114.411 113.415 114.411 114.144C114.411 118.65 110.838 124.043 103.509 128.726C99.7506 131.093 95.7018 132.931 91.4705 134.19V146.407C97.8537 144.885 103.956 142.309 109.542 138.779C117.99 133.403 125.882 124.906 125.882 114.15C125.882 111.725 125.664 109.33 125.176 107.007C144.487 96.339 157.753 79.025 159.966 59.1268C160.328 55.8863 157.724 53.2254 154.558 53.2254L47.3379 53.2194Z"/>
<path d="M114.411 206.964C114.411 213.853 112.347 219.903 108.567 224.704H125.882V236.531H34.1182V224.704H74.9244V201.051H86.3948V224.196C90.9945 223.421 94.6306 221.807 97.2459 219.684C100.83 216.786 102.941 212.612 102.941 206.964C102.941 201.317 100.83 197.148 97.2459 194.245C93.518 191.217 87.7139 189.219 80 189.219C71.2997 189.219 61.6473 188.515 54.0137 185.02C50.0908 183.223 46.4719 180.585 43.8451 176.724C41.1954 172.821 39.8534 168.085 39.8534 162.615C39.8534 157.145 41.1954 152.409 43.8451 148.506C46.4719 144.644 50.0965 142.007 54.0137 140.21C58.3725 138.211 63.4023 137.123 68.5296 136.561V148.464C64.7558 148.955 61.4064 149.765 58.6707 151.019C56.1415 152.178 54.3865 153.609 53.2452 155.288C52.1325 156.926 51.3239 159.215 51.3239 162.615C51.3239 166.015 52.1268 168.303 53.2452 169.941C54.3865 171.621 56.1415 173.052 58.6707 174.211C63.9471 176.629 71.4947 177.398 80 177.398C89.4861 177.398 98.0316 179.84 104.335 184.943C110.787 190.171 114.411 197.828 114.411 206.964Z"/>
</svg>
