<svg width="17" height="15" viewBox="0 0 17 15" xmlns="http://www.w3.org/2000/svg">
<path d="M5.09196 0.0119437C6.03148 -0.12303 7.03219 0.901184 7.32563 2.31444C7.61902 3.71976 7.10701 4.97422 6.16752 5.11714C5.23601 5.26005 4.22733 4.23584 3.92592 2.82258C3.62456 1.41726 4.15251 0.162797 5.09196 0.0119437ZM10.7886 0.0119437C11.7375 0.162797 12.2692 1.41726 11.9969 2.82258C11.7007 4.23584 10.7096 5.26005 9.76879 5.11714C8.82 4.97422 8.29625 3.71976 8.58447 2.31444C8.86469 0.901184 9.85583 -0.12303 10.7886 0.0119437ZM0.846477 3.66418C1.75294 3.27514 2.99119 3.98177 3.6423 5.21241C4.25369 6.46688 4.0527 7.78486 3.15421 8.1739C2.25571 8.56295 1.02546 7.86426 0.390211 6.61773C-0.245042 5.37121 -0.0281549 4.04529 0.846477 3.66418ZM15.1878 3.66418C16.066 4.04529 16.2953 5.37121 15.6717 6.61773C15.0481 7.86426 13.8244 8.56295 12.9222 8.1739C12.0201 7.78486 11.8068 6.46688 12.4064 5.21241C13.046 3.98177 14.2777 3.27514 15.1878 3.66418ZM13.8973 12.2231C13.9326 12.9695 13.3628 13.7952 12.6791 14.1048C11.256 14.7559 9.56056 13.4061 7.97504 13.4061C6.38953 13.4061 4.69108 14.8115 3.28551 14.1048C2.48696 13.7158 1.93238 12.6836 2.03195 11.8261C2.16983 10.6431 3.59302 10.008 4.43352 9.14254C5.55169 8.02305 6.33859 5.91904 7.94004 5.91904C9.53351 5.91904 10.3877 7.99129 11.4687 9.14254C12.3576 10.1112 13.8354 10.929 13.8973 12.2231Z"/>
</svg>
