<svg width="105" height="135" viewBox="0 0 105 135" fill="none" xmlns="http://www.w3.org/2000/svg">
<path d="M104.888 114.133L103.929 108.585C103.106 103.809 99.783 99.6571 95.0418 97.4807L74.8582 88.2071C72.3802 87.0709 71.6717 83.478 71.6002 83.2837C71.3816 82.9604 71.0117 82.7658 70.4435 82.7658C70.4266 82.7658 70.4092 82.7658 70.3923 82.7658C69.9087 82.8272 69.5127 83.1547 69.3819 83.603L67.0528 91.7776L52.5004 118.186L37.9843 91.8654L35.6162 83.603C35.4902 83.1568 35.0931 82.8272 34.4284 82.7534C34.0096 82.7534 33.6249 82.952 33.3346 83.4414C33.3278 83.4783 32.6269 87.0669 30.142 88.2071L9.95528 97.4807C5.21592 99.6589 1.89435 103.808 1.07036 108.585L0.111621 114.133C-0.264913 116.307 0.270883 119.345 2.33707 120.88C2.58018 121.062 2.88526 121.333 3.27155 121.676C6.98678 124.972 18.2925 135.003 52.5004 135.003C86.7016 135.003 98.0103 124.972 101.727 121.676C102.113 121.335 102.42 121.062 102.663 120.88C104.73 119.343 105.265 116.304 104.888 114.133Z" fill="#DBE4F0"/>
<path d="M62.1181 33.0477C67.0094 42.2272 73.7079 54.803 76.6315 56.629L77.1863 56.975L79.2198 41.097C79.7772 34.1222 77.5349 27.5202 72.9068 22.5066C67.8479 17.0263 60.4098 13.8838 52.4999 13.8838C44.5896 13.8838 37.1512 17.0263 32.0922 22.5066C27.4636 27.5181 25.2208 34.1222 25.7792 41.1134L27.6292 56.8318L28.2481 56.1562C29.5245 54.7661 31.8246 53.3148 34.7361 51.4765C41.47 47.2265 51.591 40.8394 59.5404 28.239C60.2766 29.5901 61.1533 31.236 62.1181 33.0477Z" fill="#DBE4F0"/>
<path d="M11.9231 63.9909C12.264 65.4095 13.5199 66.4004 14.977 66.4004C15.2233 66.4004 15.4698 66.3695 15.7114 66.3123L21.005 65.0409C22.0149 64.7993 22.8323 64.0684 23.1991 63.096L23.4171 63.1102L23.318 62.7131C23.4372 62.2137 23.4403 61.7243 23.3277 61.2534L20.5681 49.8321C19.9062 45.8503 19.5706 42.446 19.5706 39.7087C19.5706 21.5502 34.3435 6.77786 52.5014 6.77786C70.6589 6.77786 85.4315 21.5502 85.4315 39.7087C85.4315 42.4439 85.0958 45.8503 84.3857 49.959L81.6743 61.2534C81.6345 61.4213 81.61 61.5912 81.6005 61.7694L81.4924 62.0109C81.4565 62.0908 77.807 69.9827 66.4706 72.2079C65.8821 71.121 64.7469 70.4349 63.4921 70.4349H56.6618C54.7933 70.4349 53.2732 71.9561 53.2732 73.8251V76.4967C53.2732 78.3656 54.7933 79.8868 56.6618 79.8868H63.4921C64.9128 79.8868 66.1811 78.9818 66.6647 77.6534C73.4497 76.4906 77.9876 73.6349 80.6096 71.428C83.3263 69.1434 84.9503 66.8033 85.7471 65.4625L89.2912 66.3121C89.5322 66.3693 89.779 66.4001 90.0253 66.4001C91.4824 66.4001 92.7378 65.4092 93.0787 63.9906L95.7904 52.6962C96.1941 51.0113 95.1525 49.3122 93.4684 48.9069L91.5109 48.4381C91.9755 45.1339 92.2112 42.1984 92.2112 39.7087C92.2107 17.8147 74.3971 0 52.5014 0C30.6058 0 12.7922 17.8147 12.7922 39.7092C12.7922 42.1986 13.0277 45.1342 13.4923 48.4365L11.5331 48.9074C9.84874 49.3127 8.80774 51.0118 9.21222 52.6967L11.9231 63.9909Z" fill="#DBE4F0"/>
</svg>
