<svg width="90" height="90" viewBox="0 0 90 90" fill="none" xmlns="http://www.w3.org/2000/svg">
<g clip-path="url(#clip0_2284_3008)">
<path d="M18.9 28.8C8.5131 28.8 0 37.287 0 47.646C0 51.66 1.2816 55.3906 3.4515 58.4569L16.5942 81.1764C18.4347 83.5812 19.6587 83.125 21.1896 81.0504L35.685 56.3815C35.9775 55.8505 36.207 55.2871 36.4077 54.7111C37.3276 52.4692 37.8005 50.0693 37.8 47.646C37.8 37.287 29.2896 28.8 18.9 28.8ZM18.9 37.6308C24.4944 37.6308 28.944 42.0688 28.944 47.647C28.944 53.2252 24.4944 57.6613 18.9 57.6613C13.3065 57.6613 8.856 53.2243 8.856 47.647C8.856 42.0688 13.3065 37.6308 18.9 37.6308Z" fill="#DBE4F0"/>
<path d="M78.9742 0C72.9154 0 67.9492 4.9509 67.9492 10.9944C67.9492 13.3353 68.6962 15.5115 69.9625 17.2998L77.6296 30.5532C78.7033 31.9554 79.417 31.689 80.3098 30.4794L88.7653 16.0884C88.9363 15.7797 89.0704 15.4512 89.1865 15.1146C89.7233 13.8073 89.9994 12.4076 89.9992 10.9944C89.9992 4.95 85.0348 0 78.9742 0ZM78.9742 5.1516C82.2376 5.1516 84.8332 7.74 84.8332 10.9944C84.8332 14.2479 82.2376 16.8354 78.9742 16.8354C75.7117 16.8354 73.1152 14.2479 73.1152 10.9944C73.1152 7.74 75.7117 5.1516 78.9742 5.1516Z" fill="#DBE4F0"/>
<path fill-rule="evenodd" clip-rule="evenodd" d="M79.3866 33.6709C77.3643 33.7159 75.3366 33.8014 73.3053 33.9517L73.6185 38.9305C75.5697 38.7892 77.5243 38.6982 79.4802 38.6578L79.3866 33.6709ZM68.6091 34.4089C65.4861 34.7968 62.3361 35.3494 59.2221 36.2377L60.3948 41.0626C63.2244 40.2562 66.1566 39.7351 69.1347 39.3652L68.6091 34.4089ZM54.5592 37.9081C53.6261 38.32 52.7228 38.796 51.8556 39.3328L51.852 39.3373L51.8466 39.3391C50.6091 40.1185 49.305 41.1076 48.2403 42.5449C47.469 43.5862 46.8381 44.9029 46.6905 46.4599L51.276 46.9684C51.3102 46.603 51.4974 46.1206 51.834 45.667H51.8358V45.6652C52.3785 44.9308 53.1921 44.2639 54.1596 43.6537L54.1632 43.6519C54.8528 43.2263 55.5709 42.8486 56.3124 42.5215L54.5592 37.9081ZM52.1985 49.1896L49.2258 53.0011C49.9305 53.6455 50.6694 54.1405 51.3831 54.5545L51.3921 54.559L51.4011 54.5644C53.7699 55.9117 56.2125 56.6722 58.4769 57.394L59.7783 52.6078C57.5148 51.886 55.3809 51.1894 53.5521 50.1508C53.0283 49.8466 52.5693 49.5289 52.1985 49.1896ZM64.2 53.9542L62.9292 58.7485L63.5304 58.9357L64.2684 59.1715C66.711 59.9662 69.051 60.8149 71.1426 61.9894L73.2648 57.5614C70.7358 56.1403 68.1105 55.2115 65.5806 54.3889L65.5734 54.3871L64.8156 54.145L64.2 53.9542ZM77.5803 60.8842L74.3196 64.4122C75.09 65.2465 75.6669 66.25 75.9477 67.2868L75.9495 67.2922L75.9513 67.3003C76.2861 68.5108 76.287 69.9346 76.0251 71.3728L80.5467 72.3376C80.9157 70.3072 80.9751 68.0779 80.3685 65.8774C79.8402 63.9316 78.8322 62.2414 77.5803 60.8842ZM74.4465 74.3788C73.9482 74.9051 73.3975 75.3791 72.8031 75.7936H72.8013C71.1813 76.933 69.3021 77.7916 67.3059 78.5296L68.7945 83.2492C70.9779 82.4419 73.2198 81.4519 75.315 79.9777L75.3204 79.9732L75.3231 79.9714C76.1835 79.3689 76.9794 78.6791 77.6982 77.9131L74.4465 74.3788ZM63.0705 79.8589C60.1788 80.6365 57.2232 81.2287 54.2316 81.7309L54.9372 86.662C58.0161 86.1445 61.1076 85.5262 64.1802 84.7L63.0705 79.8589ZM49.7307 82.4113C46.7193 82.8226 43.6917 83.1583 40.6551 83.4445L41.0529 88.4143C44.1363 88.1245 47.2251 87.7834 50.3094 87.3613L49.7307 82.4113ZM36.0912 83.836C33.0483 84.0772 29.9982 84.2734 26.9454 84.439L27.1758 89.4214C30.2583 89.2549 33.3435 89.056 36.4278 88.8112L36.0912 83.836ZM22.3581 84.664C20.5284 84.7495 18.6942 84.8197 16.8555 84.8845L17.0067 89.8714C18.8569 89.8078 20.7067 89.734 22.5561 89.65L22.3581 84.664Z" fill="#DBE4F0"/>
</g>
<defs>
<clipPath id="clip0_2284_3008">
<rect width="90" height="90" fill="white"/>
</clipPath>
</defs>
</svg>
