<svg width="24" height="24" viewBox="0 0 24 24" xmlns="http://www.w3.org/2000/svg">
<path d="M16 10.7693C16.2063 10.7693 16.3862 10.6927 16.5395 10.5395C16.6927 10.3862 16.7693 10.2063 16.7693 10C16.7693 9.79367 16.6927 9.61383 16.5395 9.4605C16.3862 9.30733 16.2063 9.23075 16 9.23075C15.7937 9.23075 15.6138 9.30733 15.4605 9.4605C15.3073 9.61383 15.2308 9.79367 15.2308 10C15.2308 10.2063 15.3073 10.3862 15.4605 10.5395C15.6138 10.6927 15.7937 10.7693 16 10.7693ZM8 8.5H13V7.5H8V8.5ZM5.25 20C4.76033 18.2538 4.26292 16.5215 3.75775 14.803C3.25258 13.0843 3 11.3167 3 9.5C3 8.24867 3.43717 7.18583 4.3115 6.3115C5.18583 5.43717 6.24867 5 7.5 5H13C13.432 4.43083 13.9426 3.95517 14.5318 3.573C15.1209 3.191 15.777 3 16.5 3C16.6347 3 16.7517 3.04967 16.851 3.149C16.9503 3.24833 17 3.36533 17 3.5C17 3.53583 16.9939 3.57175 16.9818 3.60775C16.9696 3.64358 16.9597 3.6775 16.952 3.7095C16.834 4.00833 16.7394 4.3145 16.6683 4.628C16.5971 4.94133 16.532 5.25575 16.473 5.57125L19.402 8.5H21V13.7443L18.3673 14.6115L16.75 20H13V18H9V20H5.25ZM6 19H8V17H14V19H16L17.55 13.85L20 13.025V9.5H19L15.5 6C15.5 5.66667 15.5208 5.34583 15.5625 5.0375C15.6042 4.72917 15.6795 4.42308 15.7885 4.11925C15.3052 4.25258 14.8866 4.48817 14.5328 4.826C14.1789 5.16383 13.893 5.55517 13.675 6H7.5C6.53333 6 5.70833 6.34167 5.025 7.025C4.34167 7.70833 4 8.53333 4 9.5C4 11.1333 4.225 12.7292 4.675 14.2875C5.125 15.8458 5.56667 17.4167 6 19Z"/>
</svg>
