<svg width="124" height="40" viewBox="0 0 124 40" fill="none" xmlns="http://www.w3.org/2000/svg">
<path d="M117.866 14.7328H123.535C122.818 9.21548 118.788 6.31543 113.188 6.31543C107.519 6.31543 103.729 9.32164 103.729 14.4852C103.729 20.3561 108.612 21.6646 111.207 22.1953C114.554 22.8672 117.832 22.938 117.832 25.9086C117.832 27.9246 116.193 28.9149 113.871 28.9149C111.002 28.9149 109.09 27.4295 108.612 24.7417H103.012C103.353 30.5418 107.417 33.6541 113.393 33.6541C118.925 33.6541 123.466 31.037 123.466 25.3783C123.466 19.2951 118.242 18.1988 114.588 17.6328C112.095 17.2439 109.363 16.8901 109.363 14.1669C109.363 12.2571 110.763 11.09 113.12 11.09C115.852 11.09 117.491 12.6816 117.866 14.7328Z" fill="#403F41"/>
<path d="M99.9044 7.19971H94.543V32.8406H99.9044V7.19971Z" fill="#403F41"/>
<path d="M78.353 23.8927H85.3535C84.2607 26.6515 81.8019 27.9599 78.9676 27.9599C73.9821 27.9599 71.66 23.9635 71.66 20.0024C71.66 16.0059 73.8454 11.9388 78.9336 11.9388C82.0411 11.9388 84.363 13.4242 85.251 16.0767L91.022 16.0767C90.0318 10.0998 84.9778 6.66919 79.0019 6.66919C71.6259 6.66919 66.0938 11.868 66.0938 20.0732C66.0938 28.3844 72.1038 33.3004 78.9676 33.3004C85.7291 33.3004 91.022 28.7381 91.022 21.594V19.5072H78.353V23.8927Z" fill="#403F41"/>
<path d="M53.8381 6.66919C47.6914 6.66919 43.1496 10.6655 43.1838 17.3145H48.7159C48.6475 14.4145 50.4232 11.762 53.5649 11.762C56.2968 11.762 57.9017 13.7425 57.9017 16.0059C57.9017 18.2694 56.2968 19.5427 53.3258 20.9221C49.2621 22.7964 46.3596 23.9989 43.3886 25.0599V32.8406H64.0826V27.6063H49.876C49.876 27.6063 49.9233 27.591 49.9466 27.5837C52.3629 26.8254 54.1783 26.0015 56.331 25.0245C60.9409 22.9026 63.5704 20.25 63.5704 15.7231C63.5704 10.1704 59.6092 6.66919 53.8381 6.66919Z" fill="#403F41"/>
<path d="M28.6348 23.8221C21.6685 23.8575 20.5417 28.2075 20.1661 31.8857L19.9954 33.5125H18.5952L18.4245 31.8857C18.0489 28.2075 16.8879 23.8574 10.1606 23.8221C9.03369 21.417 8.55562 19.4718 8.55562 17.2791C8.55562 11.7973 12.8925 6.66899 19.3123 6.66899C25.7322 6.66899 30.0007 11.7618 30.0007 17.3146C30.0008 19.4718 29.7959 21.417 28.6348 23.8221ZM19.2441 0.0200195C8.65816 0.0200195 -0.015625 9.00329 -0.015625 20.0022C-0.015625 31.0368 8.65816 40.0199 19.2441 40.0199C29.9324 40.0199 38.572 31.0368 38.572 20.0022C38.572 9.00331 29.9324 0.0200195 19.2441 0.0200195Z" fill="#29B24A"/>
</svg>
