<svg viewBox="0 0 148 94" xmlns="http://www.w3.org/2000/svg">
<path d="M89.4938 45.2155C86.7913 44.1043 86.7913 39.8607 86.6238 36.9054C85.9481 26.379 89.3263 10.3085 85.2725 3.47607C82.4025 -0.590307 68.5495 -0.217951 60.107 0.337629C57.7396 0.709986 54.8695 1.25966 52.8427 2.37082C50.8158 3.48198 48.789 5.32603 48.789 6.98686C48.789 9.38649 53.8588 9.02005 55.7127 12.1585C57.7396 15.4861 57.7396 22.685 57.7396 28.5954C57.7396 35.4278 56.7235 44.4826 54.1939 44.8491C50.3077 45.0323 48.1133 40.7827 46.0865 37.6442C42.0327 31.5506 37.979 23.9734 34.936 16.5854C33.4172 12.7082 32.5686 8.45856 30.3742 6.79773C26.9961 4.20896 20.9155 4.02574 15.0025 4.20896C9.59749 4.39219 1.82513 3.65338 0.306336 7.16418C-0.877353 11.0414 1.65758 14.7354 3.00882 17.8798C9.9326 34.3167 17.3644 48.7263 26.488 62.3912C34.936 75.1341 42.8705 85.2941 58.4098 90.649C62.8041 92.1266 82.0566 96.3762 85.9427 90.649C87.294 88.4326 86.9589 83.4441 87.6345 79.7501C88.3101 76.0561 89.1533 72.3621 92.3639 72.1789C95.0663 71.9957 96.5851 74.5785 98.2769 76.4285C100.136 78.4617 101.655 80.1225 103.006 81.9725C106.217 85.4832 109.595 90.2825 113.649 92.1325C119.221 94.7212 127.837 93.9824 135.944 93.6101C142.533 93.4269 147.262 91.9492 147.77 87.6996C148.111 84.3721 144.727 79.5728 142.7 76.8008C137.631 69.9684 135.269 67.9352 129.523 61.6524C126.988 58.8804 123.778 55.9252 123.778 52.6035C123.61 50.5704 125.129 48.7263 126.48 46.6931C132.393 37.0887 138.306 30.2562 143.711 20.2794C145.23 17.3242 148.781 10.4917 147.43 7.16418C145.911 3.47016 137.463 4.57541 132.226 4.57541C125.469 4.57541 116.686 4.01983 114.994 5.49743C111.784 7.89707 110.433 11.7802 108.914 15.4742C105.536 23.9734 100.974 32.6499 96.2446 39.1159C94.5529 41.3324 91.3477 45.9484 89.4884 45.2096L89.4938 45.2155Z"/>
</svg>
