<svg width="105" height="105" viewBox="0 0 105 105" fill="none" xmlns="http://www.w3.org/2000/svg">
<path fill-rule="evenodd" clip-rule="evenodd" d="M89.7009 15.2582C79.9182 5.45813 66.6008 -0.0366498 52.7206 0.000183997C23.9023 0.000183997 0.448714 23.3387 0.438688 52.0261C0.42638 61.1562 2.83363 70.1279 7.4176 78.0367L0 105L27.7152 97.7652C35.3799 101.922 43.9694 104.099 52.6982 104.099H52.7206C81.5337 104.099 104.99 80.7583 105 52.0711C105.045 38.2592 99.5356 25.0035 89.7009 15.2582ZM52.7206 95.3005H52.703C44.9206 95.304 37.2804 93.2249 30.5829 89.2805L28.9962 88.3449L12.5515 92.6384L16.9435 76.6717L15.9082 75.0354C11.5619 68.142 9.26246 60.1663 9.27517 52.0287C9.27517 28.1911 28.768 8.78675 52.7382 8.78675C64.2645 8.79335 75.3163 13.3566 83.462 21.4725C91.6076 29.5885 96.18 40.5924 96.1734 52.0637C96.1633 75.9085 76.6703 95.3005 52.7206 95.3005ZM76.5551 62.9106C75.249 62.2595 68.8267 59.1164 67.6285 58.6696C66.4302 58.2232 65.5604 58.0184 64.6906 59.3208C63.8208 60.6232 61.3165 63.5496 60.5545 64.4178C59.7924 65.2856 59.0303 65.3928 57.7239 64.7421C56.4179 64.0909 52.2092 62.7185 47.2182 58.2906C43.3351 54.8426 40.7004 50.5867 39.9484 49.2843C39.1963 47.982 39.8682 47.2883 40.5224 46.6297C41.109 46.0485 41.8284 45.1129 42.4802 44.3523C43.132 43.5913 43.3526 43.0524 43.7861 42.1842C44.2201 41.316 44.0042 40.5576 43.6783 39.9065C43.3526 39.2554 40.738 32.8563 39.65 30.2543C38.5897 27.7195 37.5143 28.0613 36.7121 28.0089C35.9601 27.9715 35.0776 27.964 34.2053 27.964C32.8667 27.9989 31.6035 28.5885 30.7208 29.5906C29.5251 30.8929 26.1509 34.0363 26.1509 40.4354C26.1509 46.8345 30.8311 53.0164 31.4829 53.8846C32.1347 54.7529 40.6954 67.8829 53.7935 73.516C56.2261 74.5602 58.712 75.4761 61.2413 76.2604C64.3696 77.2581 67.2173 77.1111 69.4683 76.7768C71.9752 76.4026 77.1971 73.6307 78.2872 70.5944C79.3777 67.5586 79.3755 64.9539 79.0396 64.4126C78.7036 63.8712 77.8611 63.5719 76.5551 62.9207V62.9106Z" fill="#DBE4F0"/>
</svg>
